<svg width="370" height="208" viewBox="0 0 370 208" fill="none" xmlns="http://www.w3.org/2000/svg">
<g filter="url(#filter0_d_1_266)">
<path fill-rule="evenodd" clip-rule="evenodd" d="M26 10C20.4772 10 16 14.4772 16 20V166C16 171.523 20.4771 176 26 176H177.842L184 186L190.158 176H344C349.523 176 354 171.523 354 166V20C354 14.4772 349.523 10 344 10H26Z" fill="white"/>
</g>
<line x1="16" y1="53.5" x2="354" y2="53.5" stroke="#E5E5E5"/>
<path d="M159.842 38V26.72H164.786C166.012 26.72 166.956 26.9813 167.618 27.504C168.279 28.016 168.61 28.7307 168.61 29.648C168.61 30.3307 168.407 30.9067 168.002 31.376C167.596 31.8453 167.036 32.16 166.322 32.32V32.08C167.143 32.1973 167.778 32.496 168.226 32.976C168.684 33.4453 168.914 34.0693 168.914 34.848C168.914 35.8507 168.567 36.6293 167.874 37.184C167.18 37.728 166.215 38 164.978 38H159.842ZM161.826 36.432H164.738C165.431 36.432 165.97 36.304 166.354 36.048C166.738 35.7813 166.93 35.3493 166.93 34.752C166.93 34.144 166.738 33.712 166.354 33.456C165.97 33.1893 165.431 33.056 164.738 33.056H161.826V36.432ZM161.826 31.504H164.434C165.17 31.504 165.714 31.3707 166.066 31.104C166.428 30.8267 166.61 30.4213 166.61 29.888C166.61 29.3547 166.428 28.9547 166.066 28.688C165.714 28.4107 165.17 28.272 164.434 28.272H161.826V31.504ZM173.849 38.16C173.145 38.16 172.526 37.9947 171.993 37.664C171.459 37.3227 171.043 36.8373 170.745 36.208C170.446 35.5787 170.297 34.8267 170.297 33.952C170.297 33.0773 170.446 32.3307 170.745 31.712C171.043 31.0827 171.459 30.6027 171.993 30.272C172.526 29.9307 173.145 29.76 173.849 29.76C174.531 29.76 175.129 29.9307 175.641 30.272C176.163 30.6027 176.51 31.0507 176.681 31.616H176.505L176.681 29.92H178.601C178.569 30.2507 178.537 30.5867 178.505 30.928C178.483 31.2693 178.473 31.6053 178.473 31.936V38H176.489L176.473 36.336H176.665C176.494 36.8907 176.147 37.3333 175.625 37.664C175.102 37.9947 174.51 38.16 173.849 38.16ZM174.409 36.624C175.038 36.624 175.545 36.4053 175.929 35.968C176.313 35.52 176.505 34.848 176.505 33.952C176.505 33.056 176.313 32.3893 175.929 31.952C175.545 31.5147 175.038 31.296 174.409 31.296C173.779 31.296 173.273 31.5147 172.889 31.952C172.505 32.3893 172.313 33.056 172.313 33.952C172.313 34.848 172.499 35.52 172.873 35.968C173.257 36.4053 173.769 36.624 174.409 36.624ZM183.531 38.16C182.837 38.16 182.197 38.08 181.611 37.92C181.035 37.7493 180.549 37.5147 180.155 37.216L180.715 35.872C181.12 36.1493 181.568 36.3627 182.059 36.512C182.549 36.6613 183.045 36.736 183.547 36.736C184.08 36.736 184.475 36.6453 184.731 36.464C184.997 36.2827 185.131 36.0373 185.131 35.728C185.131 35.4827 185.045 35.2907 184.875 35.152C184.715 35.0027 184.453 34.8907 184.091 34.816L182.491 34.512C181.808 34.3627 181.285 34.1067 180.923 33.744C180.571 33.3813 180.395 32.9067 180.395 32.32C180.395 31.8187 180.528 31.376 180.795 30.992C181.072 30.608 181.461 30.3093 181.963 30.096C182.475 29.872 183.072 29.76 183.755 29.76C184.352 29.76 184.912 29.84 185.435 30C185.968 30.16 186.416 30.4 186.779 30.72L186.203 32.016C185.872 31.7493 185.493 31.5413 185.067 31.392C184.64 31.2427 184.224 31.168 183.819 31.168C183.264 31.168 182.859 31.2693 182.603 31.472C182.347 31.664 182.219 31.9147 182.219 32.224C182.219 32.4587 182.293 32.656 182.443 32.816C182.603 32.9653 182.848 33.0773 183.179 33.152L184.779 33.456C185.493 33.5947 186.032 33.84 186.395 34.192C186.768 34.5333 186.955 35.0027 186.955 35.6C186.955 36.1333 186.811 36.592 186.523 36.976C186.235 37.36 185.835 37.6533 185.323 37.856C184.811 38.0587 184.213 38.16 183.531 38.16ZM183.547 41.12C183.227 41.12 182.923 41.088 182.635 41.024C182.357 40.9707 182.112 40.8907 181.899 40.784L182.187 39.888C182.379 39.9733 182.571 40.0373 182.763 40.08C182.955 40.1333 183.157 40.16 183.371 40.16C183.659 40.16 183.877 40.1173 184.027 40.032C184.176 39.9573 184.251 39.84 184.251 39.68C184.251 39.4347 184.053 39.312 183.659 39.312C183.552 39.312 183.445 39.3173 183.339 39.328C183.243 39.3387 183.125 39.3653 182.987 39.408L182.683 39.12L182.907 37.68H183.979L183.771 38.896L183.259 38.72C183.376 38.6773 183.499 38.6453 183.627 38.624C183.765 38.6027 183.888 38.592 183.995 38.592C184.432 38.592 184.784 38.6933 185.051 38.896C185.317 39.0987 185.451 39.3813 185.451 39.744C185.451 40.16 185.275 40.4907 184.923 40.736C184.571 40.992 184.112 41.12 183.547 41.12ZM196.705 38.16C195.873 38.16 195.153 37.9893 194.545 37.648C193.937 37.3067 193.462 36.8213 193.121 36.192C192.79 35.5627 192.625 34.816 192.625 33.952C192.625 33.088 192.79 32.3467 193.121 31.728C193.462 31.0987 193.937 30.6133 194.545 30.272C195.153 29.9307 195.873 29.76 196.705 29.76C197.537 29.76 198.257 29.9307 198.865 30.272C199.483 30.6133 199.958 31.0987 200.289 31.728C200.63 32.3467 200.801 33.088 200.801 33.952C200.801 34.816 200.63 35.5627 200.289 36.192C199.958 36.8213 199.483 37.3067 198.865 37.648C198.257 37.9893 197.537 38.16 196.705 38.16ZM196.705 36.624C197.334 36.624 197.835 36.4053 198.209 35.968C198.582 35.52 198.769 34.848 198.769 33.952C198.769 33.056 198.582 32.3893 198.209 31.952C197.835 31.5147 197.334 31.296 196.705 31.296C196.075 31.296 195.574 31.5147 195.201 31.952C194.827 32.3893 194.641 33.056 194.641 33.952C194.641 34.848 194.827 35.52 195.201 35.968C195.574 36.4053 196.075 36.624 196.705 36.624ZM202.991 38V31.424H201.439V29.92H203.551L202.991 30.432V29.2C202.991 28.1973 203.242 27.44 203.743 26.928C204.255 26.416 204.997 26.16 205.967 26.16C206.202 26.16 206.447 26.176 206.703 26.208C206.97 26.24 207.199 26.2987 207.391 26.384V27.952C207.253 27.8987 207.087 27.856 206.895 27.824C206.703 27.792 206.517 27.776 206.335 27.776C205.919 27.776 205.589 27.8987 205.343 28.144C205.098 28.3787 204.975 28.7627 204.975 29.296V30.272L204.687 29.92H210.303V38H208.303V31.424H204.991V38H202.991ZM208.191 28.4V26.448H210.415V28.4H208.191ZM215.359 38.16C214.665 38.16 214.025 38.08 213.439 37.92C212.863 37.7493 212.377 37.5147 211.983 37.216L212.543 35.872C212.948 36.1493 213.396 36.3627 213.887 36.512C214.377 36.6613 214.873 36.736 215.375 36.736C215.908 36.736 216.303 36.6453 216.559 36.464C216.825 36.2827 216.959 36.0373 216.959 35.728C216.959 35.4827 216.873 35.2907 216.703 35.152C216.543 35.0027 216.281 34.8907 215.919 34.816L214.319 34.512C213.636 34.3627 213.113 34.1067 212.751 33.744C212.399 33.3813 212.223 32.9067 212.223 32.32C212.223 31.8187 212.356 31.376 212.623 30.992C212.9 30.608 213.289 30.3093 213.791 30.096C214.303 29.872 214.9 29.76 215.583 29.76C216.18 29.76 216.74 29.84 217.263 30C217.796 30.16 218.244 30.4 218.607 30.72L218.031 32.016C217.7 31.7493 217.321 31.5413 216.895 31.392C216.468 31.2427 216.052 31.168 215.647 31.168C215.092 31.168 214.687 31.2693 214.431 31.472C214.175 31.664 214.047 31.9147 214.047 32.224C214.047 32.4587 214.121 32.656 214.271 32.816C214.431 32.9653 214.676 33.0773 215.007 33.152L216.607 33.456C217.321 33.5947 217.86 33.84 218.223 34.192C218.596 34.5333 218.783 35.0027 218.783 35.6C218.783 36.1333 218.639 36.592 218.351 36.976C218.063 37.36 217.663 37.6533 217.151 37.856C216.639 38.0587 216.041 38.16 215.359 38.16Z" fill="black" fill-opacity="0.75"/>
<g clip-path="url(#clip0_1_266)">
<path d="M46.6669 128.28V130.28C46.6677 130.466 46.6297 130.649 46.5553 130.82C46.4809 130.99 46.3718 131.142 46.235 131.268C46.0982 131.393 45.9367 131.489 45.7608 131.548C45.5849 131.608 45.3985 131.63 45.2136 131.613C43.1622 131.39 41.1916 130.689 39.4603 129.567C37.8495 128.543 36.4838 127.177 35.4603 125.567C34.3336 123.827 33.6324 121.847 33.4136 119.787C33.397 119.602 33.4189 119.416 33.4779 119.241C33.537 119.066 33.632 118.904 33.7568 118.768C33.8816 118.631 34.0335 118.522 34.2028 118.447C34.3721 118.372 34.5552 118.333 34.7403 118.333H36.7403C37.0638 118.33 37.3775 118.445 37.6228 118.656C37.8681 118.867 38.0283 119.16 38.0736 119.48C38.158 120.12 38.3146 120.748 38.5403 121.353C38.63 121.592 38.6494 121.851 38.5962 122.101C38.543 122.35 38.4195 122.579 38.2403 122.76L37.3936 123.607C38.3427 125.276 39.7246 126.658 41.3936 127.607L42.2403 126.76C42.4215 126.581 42.6504 126.457 42.8997 126.404C43.149 126.351 43.4083 126.37 43.6469 126.46C44.2518 126.686 44.8802 126.842 45.5203 126.927C45.8441 126.972 46.1399 127.135 46.3513 127.385C46.5627 127.635 46.6751 127.953 46.6669 128.28Z" stroke="#CCCCCC" stroke-linecap="round" stroke-linejoin="round"/>
</g>
<path d="M61.216 129.544V126.928H58.636V126.184H61.216V123.628H61.984V126.184H64.564V126.928H61.984V129.544H61.216ZM68.2313 130.108C67.7913 130.108 67.3473 130.016 66.8993 129.832C66.4513 129.64 66.0793 129.392 65.7833 129.088L66.1553 128.308C66.4593 128.62 66.7913 128.852 67.1513 129.004C67.5113 129.156 67.8753 129.232 68.2433 129.232C69.0513 129.232 69.6713 128.944 70.1033 128.368C70.5433 127.784 70.7633 126.912 70.7633 125.752V124.636H70.8833C70.8353 125.084 70.6953 125.476 70.4633 125.812C70.2393 126.148 69.9473 126.404 69.5873 126.58C69.2353 126.756 68.8393 126.844 68.3993 126.844C67.8873 126.844 67.4313 126.732 67.0313 126.508C66.6393 126.284 66.3313 125.968 66.1073 125.56C65.8833 125.152 65.7713 124.692 65.7713 124.18C65.7713 123.644 65.8873 123.172 66.1193 122.764C66.3593 122.348 66.6833 122.024 67.0913 121.792C67.5073 121.552 67.9833 121.432 68.5193 121.432C69.5513 121.432 70.3433 121.792 70.8953 122.512C71.4553 123.232 71.7353 124.248 71.7353 125.56C71.7353 126.528 71.5953 127.352 71.3153 128.032C71.0353 128.712 70.6353 129.228 70.1153 129.58C69.5953 129.932 68.9673 130.108 68.2313 130.108ZM68.6033 126.016C68.9713 126.016 69.2953 125.936 69.5753 125.776C69.8553 125.616 70.0713 125.396 70.2233 125.116C70.3833 124.836 70.4633 124.512 70.4633 124.144C70.4633 123.768 70.3833 123.44 70.2233 123.16C70.0713 122.88 69.8553 122.66 69.5753 122.5C69.2953 122.34 68.9713 122.26 68.6033 122.26C68.2353 122.26 67.9073 122.34 67.6193 122.5C67.3393 122.66 67.1193 122.88 66.9593 123.16C66.8073 123.44 66.7313 123.768 66.7313 124.144C66.7313 124.512 66.8073 124.836 66.9593 125.116C67.1193 125.396 67.3393 125.616 67.6193 125.776C67.9073 125.936 68.2353 126.016 68.6033 126.016ZM75.4266 130.108C74.9866 130.108 74.5426 130.016 74.0946 129.832C73.6466 129.64 73.2746 129.392 72.9786 129.088L73.3506 128.308C73.6546 128.62 73.9866 128.852 74.3466 129.004C74.7066 129.156 75.0706 129.232 75.4386 129.232C76.2466 129.232 76.8666 128.944 77.2986 128.368C77.7386 127.784 77.9586 126.912 77.9586 125.752V124.636H78.0786C78.0306 125.084 77.8906 125.476 77.6586 125.812C77.4346 126.148 77.1426 126.404 76.7826 126.58C76.4306 126.756 76.0346 126.844 75.5946 126.844C75.0826 126.844 74.6266 126.732 74.2266 126.508C73.8346 126.284 73.5266 125.968 73.3026 125.56C73.0786 125.152 72.9666 124.692 72.9666 124.18C72.9666 123.644 73.0826 123.172 73.3146 122.764C73.5546 122.348 73.8786 122.024 74.2866 121.792C74.7026 121.552 75.1786 121.432 75.7146 121.432C76.7466 121.432 77.5386 121.792 78.0906 122.512C78.6506 123.232 78.9306 124.248 78.9306 125.56C78.9306 126.528 78.7906 127.352 78.5106 128.032C78.2306 128.712 77.8306 129.228 77.3106 129.58C76.7906 129.932 76.1626 130.108 75.4266 130.108ZM75.7986 126.016C76.1666 126.016 76.4906 125.936 76.7706 125.776C77.0506 125.616 77.2666 125.396 77.4186 125.116C77.5786 124.836 77.6586 124.512 77.6586 124.144C77.6586 123.768 77.5786 123.44 77.4186 123.16C77.2666 122.88 77.0506 122.66 76.7706 122.5C76.4906 122.34 76.1666 122.26 75.7986 122.26C75.4306 122.26 75.1026 122.34 74.8146 122.5C74.5346 122.66 74.3146 122.88 74.1546 123.16C74.0026 123.44 73.9266 123.768 73.9266 124.144C73.9266 124.512 74.0026 124.836 74.1546 125.116C74.3146 125.396 74.5346 125.616 74.8146 125.776C75.1026 125.936 75.4306 126.016 75.7986 126.016ZM84.2179 130V128.164H80.1859V127.444L84.3739 121.54H85.1899V127.36H86.4859V128.164H85.1899V130H84.2179ZM84.2179 127.36V122.716H84.4819L81.0019 127.612V127.36H84.2179ZM92.5862 132.16C92.2582 131.56 91.9862 130.972 91.7702 130.396C91.5542 129.828 91.3942 129.252 91.2902 128.668C91.1942 128.084 91.1462 127.476 91.1462 126.844C91.1462 126.212 91.1942 125.604 91.2902 125.02C91.3942 124.436 91.5542 123.86 91.7702 123.292C91.9862 122.716 92.2582 122.132 92.5862 121.54H93.4022C92.9942 122.436 92.6822 123.324 92.4662 124.204C92.2582 125.076 92.1542 125.956 92.1542 126.844C92.1542 127.724 92.2582 128.608 92.4662 129.496C92.6822 130.376 92.9942 131.264 93.4022 132.16H92.5862ZM95.2545 130V129.148H97.2465V122.392H97.7745L95.4465 123.844V122.848L97.5225 121.54H98.2425V129.148H100.114V130H95.2545ZM101.958 130V129.256L104.958 126.124C105.35 125.716 105.642 125.328 105.834 124.96C106.034 124.584 106.134 124.196 106.134 123.796C106.134 123.308 105.982 122.94 105.678 122.692C105.374 122.436 104.934 122.308 104.358 122.308C103.91 122.308 103.494 122.388 103.11 122.548C102.734 122.7 102.37 122.944 102.018 123.28L101.658 122.5C101.978 122.18 102.386 121.924 102.882 121.732C103.378 121.532 103.902 121.432 104.454 121.432C105.31 121.432 105.97 121.632 106.434 122.032C106.898 122.424 107.13 122.984 107.13 123.712C107.13 124.248 106.998 124.76 106.734 125.248C106.478 125.728 106.102 126.224 105.606 126.736L102.954 129.424V129.148H107.49V130H101.958ZM109.249 132.16H108.445C108.853 131.264 109.161 130.376 109.369 129.496C109.585 128.616 109.693 127.736 109.693 126.856C109.693 125.968 109.585 125.084 109.369 124.204C109.161 123.324 108.853 122.436 108.445 121.54H109.249C109.593 122.132 109.869 122.716 110.077 123.292C110.293 123.86 110.449 124.44 110.545 125.032C110.649 125.616 110.701 126.224 110.701 126.856C110.701 127.48 110.649 128.088 110.545 128.68C110.449 129.264 110.293 129.84 110.077 130.408C109.869 130.984 109.593 131.568 109.249 132.16ZM118.622 130.108C118.054 130.108 117.51 130.02 116.99 129.844C116.47 129.668 116.034 129.416 115.682 129.088L116.054 128.32C116.446 128.64 116.85 128.872 117.266 129.016C117.682 129.16 118.13 129.232 118.61 129.232C119.242 129.232 119.722 129.1 120.05 128.836C120.378 128.564 120.542 128.168 120.542 127.648C120.542 127.152 120.374 126.776 120.038 126.52C119.702 126.256 119.21 126.124 118.562 126.124H117.29V125.296H118.478C119.038 125.296 119.482 125.152 119.81 124.864C120.138 124.576 120.302 124.184 120.302 123.688C120.302 123.24 120.15 122.9 119.846 122.668C119.55 122.428 119.122 122.308 118.562 122.308C117.65 122.308 116.862 122.632 116.198 123.28L115.826 122.5C116.154 122.164 116.566 121.904 117.062 121.72C117.558 121.528 118.078 121.432 118.622 121.432C119.454 121.432 120.106 121.624 120.578 122.008C121.05 122.392 121.286 122.924 121.286 123.604C121.286 124.124 121.138 124.572 120.842 124.948C120.546 125.316 120.146 125.568 119.642 125.704V125.572C120.242 125.668 120.706 125.908 121.034 126.292C121.362 126.668 121.526 127.144 121.526 127.72C121.526 128.456 121.266 129.04 120.746 129.472C120.234 129.896 119.526 130.108 118.622 130.108ZM123.79 130V129.148H125.782V122.392H126.31L123.982 123.844V122.848L126.058 121.54H126.778V129.148H128.65V130H123.79ZM133.061 130.108C132.101 130.108 131.365 129.736 130.853 128.992C130.341 128.248 130.085 127.172 130.085 125.764C130.085 124.348 130.341 123.272 130.853 122.536C131.365 121.8 132.101 121.432 133.061 121.432C134.029 121.432 134.765 121.8 135.269 122.536C135.781 123.272 136.037 124.344 136.037 125.752C136.037 127.168 135.781 128.248 135.269 128.992C134.757 129.736 134.021 130.108 133.061 130.108ZM133.061 129.244C133.733 129.244 134.233 128.96 134.561 128.392C134.889 127.824 135.053 126.944 135.053 125.752C135.053 124.552 134.889 123.676 134.561 123.124C134.233 122.564 133.733 122.284 133.061 122.284C132.397 122.284 131.897 122.564 131.561 123.124C131.233 123.684 131.069 124.56 131.069 125.752C131.069 126.944 131.233 127.824 131.561 128.392C131.897 128.96 132.397 129.244 133.061 129.244ZM137.52 127.108V126.304H140.94V127.108H137.52ZM145.389 130.108C144.429 130.108 143.693 129.736 143.181 128.992C142.669 128.248 142.413 127.172 142.413 125.764C142.413 124.348 142.669 123.272 143.181 122.536C143.693 121.8 144.429 121.432 145.389 121.432C146.357 121.432 147.093 121.8 147.597 122.536C148.109 123.272 148.365 124.344 148.365 125.752C148.365 127.168 148.109 128.248 147.597 128.992C147.085 129.736 146.349 130.108 145.389 130.108ZM145.389 129.244C146.061 129.244 146.561 128.96 146.889 128.392C147.217 127.824 147.381 126.944 147.381 125.752C147.381 124.552 147.217 123.676 146.889 123.124C146.561 122.564 146.061 122.284 145.389 122.284C144.725 122.284 144.225 122.564 143.889 123.124C143.561 123.684 143.397 124.56 143.397 125.752C143.397 126.944 143.561 127.824 143.889 128.392C144.225 128.96 144.725 129.244 145.389 129.244ZM150.508 130V129.148H152.5V122.392H153.028L150.7 123.844V122.848L152.776 121.54H153.496V129.148H155.368V130H150.508ZM157.044 127.108V126.304H160.464V127.108H157.044ZM164.913 130.108C163.953 130.108 163.217 129.736 162.705 128.992C162.193 128.248 161.937 127.172 161.937 125.764C161.937 124.348 162.193 123.272 162.705 122.536C163.217 121.8 163.953 121.432 164.913 121.432C165.881 121.432 166.617 121.8 167.121 122.536C167.633 123.272 167.889 124.344 167.889 125.752C167.889 127.168 167.633 128.248 167.121 128.992C166.609 129.736 165.873 130.108 164.913 130.108ZM164.913 129.244C165.585 129.244 166.085 128.96 166.413 128.392C166.741 127.824 166.905 126.944 166.905 125.752C166.905 124.552 166.741 123.676 166.413 123.124C166.085 122.564 165.585 122.284 164.913 122.284C164.249 122.284 163.749 122.564 163.413 123.124C163.085 123.684 162.921 124.56 162.921 125.752C162.921 126.944 163.085 127.824 163.413 128.392C163.749 128.96 164.249 129.244 164.913 129.244ZM170.032 130V129.148H172.024V122.392H172.552L170.224 123.844V122.848L172.3 121.54H173.02V129.148H174.892V130H170.032Z" fill="black"/>
<path d="M59.056 158V149.54H60.052V153.284H65.152V149.54H66.136V158H65.152V154.136H60.052V158H59.056ZM70.2835 158.108C69.4835 158.108 68.8555 157.86 68.3995 157.364C67.9515 156.86 67.7275 156.172 67.7275 155.3V154.904H72.4075V155.516H68.3635L68.5675 155.336C68.5675 155.984 68.7155 156.488 69.0115 156.848C69.3075 157.2 69.7315 157.376 70.2835 157.376C70.8995 157.376 71.3715 157.168 71.6995 156.752C72.0355 156.336 72.2035 155.792 72.2035 155.12V154.976C72.2035 154.208 72.0155 153.628 71.6395 153.236C71.2715 152.844 70.7395 152.648 70.0435 152.648C69.7075 152.648 69.3795 152.704 69.0595 152.816C68.7475 152.92 68.4435 153.1 68.1475 153.356L67.8475 152.648C68.1115 152.392 68.4475 152.2 68.8555 152.072C69.2635 151.936 69.6955 151.868 70.1515 151.868C70.7675 151.868 71.2995 151.992 71.7475 152.24C72.1955 152.48 72.5395 152.832 72.7795 153.296C73.0275 153.76 73.1515 154.32 73.1515 154.976C73.1515 155.6 73.0315 156.148 72.7915 156.62C72.5515 157.092 72.2155 157.46 71.7835 157.724C71.3595 157.98 70.8595 158.108 70.2835 158.108ZM74.9163 158V152.732H73.7403V151.976H75.1803L74.9163 152.228V151.22C74.9163 150.54 75.0883 150.02 75.4323 149.66C75.7763 149.3 76.2683 149.12 76.9083 149.12C77.0683 149.12 77.2323 149.136 77.4003 149.168C77.5763 149.192 77.7203 149.228 77.8323 149.276V150.08C77.7363 150.04 77.6163 150.008 77.4723 149.984C77.3363 149.952 77.1963 149.936 77.0523 149.936C76.8043 149.936 76.5923 149.988 76.4163 150.092C76.2403 150.188 76.1083 150.336 76.0203 150.536C75.9323 150.736 75.8883 150.992 75.8883 151.304V152.18L75.7323 151.976H77.5683V152.732H75.8883V158H74.9163ZM80.5137 158.108C79.9217 158.108 79.4697 157.94 79.1577 157.604C78.8457 157.26 78.6897 156.744 78.6897 156.056V152.732H77.5137V151.976H78.6897V150.332L79.6617 150.056V151.976H81.3897V152.732H79.6617V155.948C79.6617 156.428 79.7417 156.772 79.9017 156.98C80.0697 157.18 80.3177 157.28 80.6457 157.28C80.7977 157.28 80.9337 157.268 81.0537 157.244C81.1737 157.212 81.2817 157.176 81.3777 157.136V157.952C81.2657 158 81.1297 158.036 80.9697 158.06C80.8177 158.092 80.6657 158.108 80.5137 158.108ZM84.6624 158.108C83.8624 158.108 83.2344 157.86 82.7784 157.364C82.3304 156.86 82.1064 156.172 82.1064 155.3V154.904H86.7864V155.516H82.7424L82.9464 155.336C82.9464 155.984 83.0944 156.488 83.3904 156.848C83.6864 157.2 84.1104 157.376 84.6624 157.376C85.2784 157.376 85.7504 157.168 86.0784 156.752C86.4144 156.336 86.5824 155.792 86.5824 155.12V154.976C86.5824 154.208 86.3944 153.628 86.0184 153.236C85.6504 152.844 85.1184 152.648 84.4224 152.648C84.0864 152.648 83.7584 152.704 83.4384 152.816C83.1264 152.92 82.8224 153.1 82.5264 153.356L82.2264 152.648C82.4904 152.392 82.8264 152.2 83.2344 152.072C83.6424 151.936 84.0744 151.868 84.5304 151.868C85.1464 151.868 85.6784 151.992 86.1264 152.24C86.5744 152.48 86.9184 152.832 87.1584 153.296C87.4064 153.76 87.5304 154.32 87.5304 154.976C87.5304 155.6 87.4104 156.148 87.1704 156.62C86.9304 157.092 86.5944 157.46 86.1624 157.724C85.7384 157.98 85.2384 158.108 84.6624 158.108ZM92.1707 158V151.976H93.1427V158H92.1707ZM92.0507 150.608V149.516H93.2507V150.608H92.0507ZM97.562 158.108C96.97 158.108 96.454 157.98 96.014 157.724C95.582 157.468 95.246 157.104 95.006 156.632C94.774 156.16 94.658 155.6 94.658 154.952C94.658 154.296 94.778 153.74 95.018 153.284C95.258 152.82 95.594 152.468 96.026 152.228C96.466 151.988 96.978 151.868 97.562 151.868C97.946 151.868 98.318 151.936 98.678 152.072C99.046 152.208 99.35 152.4 99.59 152.648L99.242 153.344C99.002 153.112 98.738 152.94 98.45 152.828C98.17 152.716 97.894 152.66 97.622 152.66C96.998 152.66 96.514 152.856 96.17 153.248C95.826 153.64 95.654 154.212 95.654 154.964C95.654 155.708 95.826 156.284 96.17 156.692C96.514 157.1 96.998 157.304 97.622 157.304C97.886 157.304 98.158 157.252 98.438 157.148C98.726 157.044 98.994 156.872 99.242 156.632L99.59 157.316C99.342 157.572 99.034 157.768 98.666 157.904C98.298 158.04 97.93 158.108 97.562 158.108ZM97.562 160.304C97.354 160.304 97.154 160.284 96.962 160.244C96.778 160.204 96.618 160.148 96.482 160.076L96.65 159.548C96.794 159.612 96.93 159.66 97.058 159.692C97.194 159.724 97.35 159.74 97.526 159.74C97.742 159.74 97.914 159.7 98.042 159.62C98.17 159.548 98.234 159.44 98.234 159.296C98.234 159.072 98.082 158.96 97.778 158.96C97.69 158.96 97.602 158.964 97.514 158.972C97.434 158.988 97.334 159.02 97.214 159.068L97.01 158.876L97.19 157.76H97.802L97.646 158.66L97.358 158.588C97.446 158.564 97.538 158.544 97.634 158.528C97.73 158.512 97.818 158.504 97.898 158.504C98.186 158.504 98.426 158.576 98.618 158.72C98.81 158.864 98.906 159.064 98.906 159.32C98.906 159.616 98.782 159.852 98.534 160.028C98.286 160.212 97.962 160.304 97.562 160.304ZM100.971 158V151.976H101.943V158H100.971ZM100.851 150.608V149.516H102.051V150.608H100.851ZM103.639 153.2V151.976H104.863V153.2H103.639ZM103.639 158V156.776H104.863V158H103.639ZM112.342 158.108C111.382 158.108 110.646 157.736 110.134 156.992C109.622 156.248 109.366 155.172 109.366 153.764C109.366 152.348 109.622 151.272 110.134 150.536C110.646 149.8 111.382 149.432 112.342 149.432C113.31 149.432 114.046 149.8 114.55 150.536C115.062 151.272 115.318 152.344 115.318 153.752C115.318 155.168 115.062 156.248 114.55 156.992C114.038 157.736 113.302 158.108 112.342 158.108ZM112.342 157.244C113.014 157.244 113.514 156.96 113.842 156.392C114.17 155.824 114.334 154.944 114.334 153.752C114.334 152.552 114.17 151.676 113.842 151.124C113.514 150.564 113.014 150.284 112.342 150.284C111.678 150.284 111.178 150.564 110.842 151.124C110.514 151.684 110.35 152.56 110.35 153.752C110.35 154.944 110.514 155.824 110.842 156.392C111.178 156.96 111.678 157.244 112.342 157.244ZM118.974 158.108C118.534 158.108 118.09 158.016 117.642 157.832C117.194 157.64 116.822 157.392 116.526 157.088L116.898 156.308C117.202 156.62 117.534 156.852 117.894 157.004C118.254 157.156 118.618 157.232 118.986 157.232C119.794 157.232 120.414 156.944 120.846 156.368C121.286 155.784 121.506 154.912 121.506 153.752V152.636H121.626C121.578 153.084 121.438 153.476 121.206 153.812C120.982 154.148 120.69 154.404 120.33 154.58C119.978 154.756 119.582 154.844 119.142 154.844C118.63 154.844 118.174 154.732 117.774 154.508C117.382 154.284 117.074 153.968 116.85 153.56C116.626 153.152 116.514 152.692 116.514 152.18C116.514 151.644 116.63 151.172 116.862 150.764C117.102 150.348 117.426 150.024 117.834 149.792C118.25 149.552 118.726 149.432 119.262 149.432C120.294 149.432 121.086 149.792 121.638 150.512C122.198 151.232 122.478 152.248 122.478 153.56C122.478 154.528 122.338 155.352 122.058 156.032C121.778 156.712 121.378 157.228 120.858 157.58C120.338 157.932 119.71 158.108 118.974 158.108ZM119.346 154.016C119.714 154.016 120.038 153.936 120.318 153.776C120.598 153.616 120.814 153.396 120.966 153.116C121.126 152.836 121.206 152.512 121.206 152.144C121.206 151.768 121.126 151.44 120.966 151.16C120.814 150.88 120.598 150.66 120.318 150.5C120.038 150.34 119.714 150.26 119.346 150.26C118.978 150.26 118.65 150.34 118.362 150.5C118.082 150.66 117.862 150.88 117.701 151.16C117.55 151.44 117.474 151.768 117.474 152.144C117.474 152.512 117.55 152.836 117.701 153.116C117.862 153.396 118.082 153.616 118.362 153.776C118.65 153.936 118.978 154.016 119.346 154.016ZM123.889 153.2V151.976H125.113V153.2H123.889ZM123.889 158V156.776H125.113V158H123.889ZM129.463 158.108C128.503 158.108 127.767 157.736 127.255 156.992C126.743 156.248 126.487 155.172 126.487 153.764C126.487 152.348 126.743 151.272 127.255 150.536C127.767 149.8 128.503 149.432 129.463 149.432C130.431 149.432 131.167 149.8 131.671 150.536C132.183 151.272 132.439 152.344 132.439 153.752C132.439 155.168 132.183 156.248 131.671 156.992C131.159 157.736 130.423 158.108 129.463 158.108ZM129.463 157.244C130.135 157.244 130.635 156.96 130.963 156.392C131.291 155.824 131.455 154.944 131.455 153.752C131.455 152.552 131.291 151.676 130.963 151.124C130.635 150.564 130.135 150.284 129.463 150.284C128.799 150.284 128.299 150.564 127.963 151.124C127.635 151.684 127.471 152.56 127.471 153.752C127.471 154.944 127.635 155.824 127.963 156.392C128.299 156.96 128.799 157.244 129.463 157.244ZM136.659 158.108C135.699 158.108 134.963 157.736 134.451 156.992C133.939 156.248 133.683 155.172 133.683 153.764C133.683 152.348 133.939 151.272 134.451 150.536C134.963 149.8 135.699 149.432 136.659 149.432C137.627 149.432 138.363 149.8 138.867 150.536C139.379 151.272 139.635 152.344 139.635 153.752C139.635 155.168 139.379 156.248 138.867 156.992C138.355 157.736 137.619 158.108 136.659 158.108ZM136.659 157.244C137.331 157.244 137.831 156.96 138.159 156.392C138.487 155.824 138.651 154.944 138.651 153.752C138.651 152.552 138.487 151.676 138.159 151.124C137.831 150.564 137.331 150.284 136.659 150.284C135.995 150.284 135.495 150.564 135.159 151.124C134.831 151.684 134.667 152.56 134.667 153.752C134.667 154.944 134.831 155.824 135.159 156.392C135.495 156.96 135.995 157.244 136.659 157.244ZM144.247 155.108V154.304H147.667V155.108H144.247ZM153.169 158V157.148H155.161V150.392H155.689L153.361 151.844V150.848L155.437 149.54H156.157V157.148H158.029V158H153.169ZM162.44 158.108C161.472 158.108 160.724 157.904 160.196 157.496C159.668 157.08 159.404 156.5 159.404 155.756C159.404 155.172 159.584 154.688 159.944 154.304C160.304 153.912 160.78 153.676 161.372 153.596V153.776C160.836 153.664 160.408 153.42 160.088 153.044C159.768 152.66 159.608 152.208 159.608 151.688C159.608 150.976 159.86 150.424 160.364 150.032C160.868 149.632 161.56 149.432 162.44 149.432C163.328 149.432 164.024 149.632 164.528 150.032C165.032 150.424 165.284 150.976 165.284 151.688C165.284 152.208 165.132 152.66 164.828 153.044C164.532 153.428 164.116 153.668 163.58 153.764V153.596C164.164 153.676 164.628 153.912 164.972 154.304C165.316 154.688 165.488 155.172 165.488 155.756C165.488 156.5 165.224 157.08 164.696 157.496C164.168 157.904 163.416 158.108 162.44 158.108ZM162.44 157.292C163.144 157.292 163.668 157.16 164.012 156.896C164.364 156.632 164.54 156.232 164.54 155.696C164.54 155.168 164.364 154.776 164.012 154.52C163.668 154.256 163.144 154.124 162.44 154.124C161.736 154.124 161.208 154.256 160.856 154.52C160.512 154.776 160.34 155.168 160.34 155.696C160.34 156.232 160.516 156.632 160.868 156.896C161.22 157.16 161.744 157.292 162.44 157.292ZM162.44 153.308C163.048 153.308 163.512 153.172 163.832 152.9C164.16 152.628 164.324 152.252 164.324 151.772C164.324 151.292 164.16 150.92 163.832 150.656C163.512 150.384 163.048 150.248 162.44 150.248C161.832 150.248 161.364 150.384 161.036 150.656C160.716 150.92 160.556 151.292 160.556 151.772C160.556 152.252 160.716 152.628 161.036 152.9C161.364 153.172 161.832 153.308 162.44 153.308ZM166.791 153.2V151.976H168.015V153.2H166.791ZM166.791 158V156.776H168.015V158H166.791ZM172.366 158.108C171.406 158.108 170.67 157.736 170.158 156.992C169.646 156.248 169.39 155.172 169.39 153.764C169.39 152.348 169.646 151.272 170.158 150.536C170.67 149.8 171.406 149.432 172.366 149.432C173.334 149.432 174.07 149.8 174.574 150.536C175.086 151.272 175.342 152.344 175.342 153.752C175.342 155.168 175.086 156.248 174.574 156.992C174.062 157.736 173.326 158.108 172.366 158.108ZM172.366 157.244C173.038 157.244 173.538 156.96 173.866 156.392C174.194 155.824 174.358 154.944 174.358 153.752C174.358 152.552 174.194 151.676 173.866 151.124C173.538 150.564 173.038 150.284 172.366 150.284C171.702 150.284 171.202 150.564 170.866 151.124C170.538 151.684 170.374 152.56 170.374 153.752C170.374 154.944 170.538 155.824 170.866 156.392C171.202 156.96 171.702 157.244 172.366 157.244ZM179.561 158.108C178.601 158.108 177.865 157.736 177.353 156.992C176.841 156.248 176.585 155.172 176.585 153.764C176.585 152.348 176.841 151.272 177.353 150.536C177.865 149.8 178.601 149.432 179.561 149.432C180.529 149.432 181.265 149.8 181.769 150.536C182.281 151.272 182.537 152.344 182.537 153.752C182.537 155.168 182.281 156.248 181.769 156.992C181.257 157.736 180.521 158.108 179.561 158.108ZM179.561 157.244C180.233 157.244 180.733 156.96 181.061 156.392C181.389 155.824 181.553 154.944 181.553 153.752C181.553 152.552 181.389 151.676 181.061 151.124C180.733 150.564 180.233 150.284 179.561 150.284C178.897 150.284 178.397 150.564 178.061 151.124C177.733 151.684 177.569 152.56 177.569 153.752C177.569 154.944 177.733 155.824 178.061 156.392C178.397 156.96 178.897 157.244 179.561 157.244Z" fill="black"/>
<path d="M44.6667 147.667H35.3333C34.597 147.667 34 148.264 34 149V158.333C34 159.07 34.597 159.667 35.3333 159.667H44.6667C45.403 159.667 46 159.07 46 158.333V149C46 148.264 45.403 147.667 44.6667 147.667Z" stroke="#CCCCCC" stroke-linecap="round" stroke-linejoin="round"/>
<path d="M42.668 146.333V149" stroke="#CCCCCC" stroke-linecap="round" stroke-linejoin="round"/>
<path d="M37.332 146.333V149" stroke="#CCCCCC" stroke-linecap="round" stroke-linejoin="round"/>
<path d="M34 151.667H46" stroke="#CCCCCC" stroke-linecap="round" stroke-linejoin="round"/>
<path d="M62.74 80.108C61.892 80.108 61.172 79.932 60.58 79.58C59.988 79.228 59.532 78.728 59.212 78.08C58.9 77.432 58.744 76.66 58.744 75.764C58.744 74.868 58.9 74.1 59.212 73.46C59.532 72.812 59.988 72.312 60.58 71.96C61.172 71.608 61.892 71.432 62.74 71.432C63.34 71.432 63.876 71.524 64.348 71.708C64.82 71.892 65.232 72.16 65.584 72.512L65.212 73.304C64.828 72.968 64.448 72.724 64.072 72.572C63.696 72.412 63.256 72.332 62.752 72.332C61.784 72.332 61.048 72.632 60.544 73.232C60.04 73.832 59.788 74.676 59.788 75.764C59.788 76.852 60.04 77.7 60.544 78.308C61.048 78.908 61.784 79.208 62.752 79.208C63.256 79.208 63.696 79.132 64.072 78.98C64.448 78.82 64.828 78.568 65.212 78.224L65.584 79.028C65.232 79.372 64.82 79.64 64.348 79.832C63.876 80.016 63.34 80.108 62.74 80.108ZM69.4053 80.108C68.4613 80.108 67.7173 79.836 67.1733 79.292C66.6293 78.74 66.3573 77.976 66.3573 77C66.3573 76.368 66.4773 75.82 66.7173 75.356C66.9573 74.884 67.2933 74.52 67.7253 74.264C68.1573 74 68.6533 73.868 69.2133 73.868C69.7653 73.868 70.2293 73.984 70.6053 74.216C70.9813 74.448 71.2693 74.78 71.4693 75.212C71.6693 75.636 71.7693 76.14 71.7693 76.724V77.084H67.1013V76.472H71.1333L70.9293 76.628C70.9293 75.988 70.7853 75.488 70.4973 75.128C70.2093 74.768 69.7813 74.588 69.2133 74.588C68.6133 74.588 68.1453 74.8 67.8093 75.224C67.4733 75.64 67.3053 76.204 67.3053 76.916V77.024C67.3053 77.776 67.4893 78.348 67.8573 78.74C68.2333 79.124 68.7573 79.316 69.4293 79.316C69.7893 79.316 70.1253 79.264 70.4373 79.16C70.7573 79.048 71.0613 78.868 71.3493 78.62L71.6853 79.304C71.4213 79.56 71.0853 79.76 70.6773 79.904C70.2773 80.04 69.8533 80.108 69.4053 80.108ZM72.9463 82.724L72.7183 81.92C73.0943 81.832 73.4063 81.728 73.6543 81.608C73.9103 81.496 74.1223 81.344 74.2903 81.152C74.4583 80.96 74.6023 80.72 74.7223 80.432L75.0343 79.724L75.0103 80.132L72.3823 73.976H73.4383L75.6103 79.268H75.2983L77.4463 73.976H78.4663L75.6823 80.504C75.5223 80.888 75.3463 81.208 75.1543 81.464C74.9623 81.728 74.7543 81.94 74.5303 82.1C74.3143 82.268 74.0743 82.4 73.8103 82.496C73.5463 82.592 73.2583 82.668 72.9463 82.724ZM79.5613 80V71.168H80.5333V75.308H80.3773C80.5453 74.836 80.8253 74.48 81.2173 74.24C81.6173 73.992 82.0773 73.868 82.5973 73.868C83.3173 73.868 83.8533 74.064 84.2053 74.456C84.5573 74.84 84.7333 75.424 84.7333 76.208V80H83.7613V76.268C83.7613 75.708 83.6493 75.3 83.4253 75.044C83.2093 74.788 82.8573 74.66 82.3693 74.66C81.8093 74.66 81.3613 74.832 81.0253 75.176C80.6973 75.52 80.5333 75.972 80.5333 76.532V80H79.5613ZM88.7165 80.108C88.0045 80.108 87.4645 79.912 87.0965 79.52C86.7365 79.128 86.5565 78.528 86.5565 77.72V73.976H87.5285V77.696C87.5285 78.248 87.6405 78.656 87.8645 78.92C88.0885 79.176 88.4365 79.304 88.9085 79.304C89.4365 79.304 89.8605 79.132 90.1805 78.788C90.5005 78.444 90.6605 77.984 90.6605 77.408V73.976H91.6325V80H90.6845V78.644H90.8405C90.6725 79.108 90.4005 79.468 90.0245 79.724C89.6565 79.98 89.2205 80.108 88.7165 80.108ZM93.5183 80V75.368C93.5183 75.144 93.5063 74.916 93.4823 74.684C93.4663 74.444 93.4463 74.208 93.4223 73.976H94.3583L94.4783 75.296H94.3343C94.5103 74.832 94.7903 74.48 95.1743 74.24C95.5663 73.992 96.0183 73.868 96.5303 73.868C97.2423 73.868 97.7783 74.06 98.1383 74.444C98.5063 74.82 98.6903 75.416 98.6903 76.232V80H97.7183V76.292C97.7183 75.724 97.6023 75.312 97.3703 75.056C97.1463 74.792 96.7943 74.66 96.3143 74.66C95.7543 74.66 95.3103 74.832 94.9823 75.176C94.6543 75.52 94.4903 75.98 94.4903 76.556V80H93.5183ZM103.786 80V71.54H104.782V75.284H109.882V71.54H110.866V80H109.882V76.136H104.782V80H103.786ZM115.158 80.108C114.622 80.108 114.154 79.984 113.754 79.736C113.354 79.48 113.042 79.12 112.818 78.656C112.602 78.192 112.494 77.636 112.494 76.988C112.494 76.332 112.602 75.772 112.818 75.308C113.042 74.844 113.354 74.488 113.754 74.24C114.154 73.992 114.622 73.868 115.158 73.868C115.702 73.868 116.17 74.008 116.562 74.288C116.962 74.56 117.226 74.932 117.354 75.404H117.21L117.342 73.976H118.278C118.254 74.208 118.23 74.444 118.206 74.684C118.19 74.916 118.182 75.144 118.182 75.368V80H117.21V78.584H117.342C117.214 79.056 116.95 79.428 116.55 79.7C116.15 79.972 115.686 80.108 115.158 80.108ZM115.35 79.316C115.926 79.316 116.382 79.12 116.718 78.728C117.054 78.328 117.222 77.748 117.222 76.988C117.222 76.22 117.054 75.64 116.718 75.248C116.382 74.848 115.926 74.648 115.35 74.648C114.782 74.648 114.326 74.848 113.982 75.248C113.646 75.64 113.478 76.22 113.478 76.988C113.478 77.748 113.646 78.328 113.982 78.728C114.326 79.12 114.782 79.316 115.35 79.316ZM122.593 80.108C122.001 80.108 121.485 79.98 121.045 79.724C120.613 79.468 120.277 79.104 120.037 78.632C119.805 78.16 119.689 77.6 119.689 76.952C119.689 76.296 119.809 75.74 120.049 75.284C120.289 74.82 120.625 74.468 121.057 74.228C121.497 73.988 122.009 73.868 122.593 73.868C122.977 73.868 123.349 73.936 123.709 74.072C124.077 74.208 124.381 74.4 124.621 74.648L124.273 75.344C124.033 75.112 123.769 74.94 123.481 74.828C123.201 74.716 122.925 74.66 122.653 74.66C122.029 74.66 121.545 74.856 121.201 75.248C120.857 75.64 120.685 76.212 120.685 76.964C120.685 77.708 120.857 78.284 121.201 78.692C121.545 79.1 122.029 79.304 122.653 79.304C122.917 79.304 123.189 79.252 123.469 79.148C123.757 79.044 124.025 78.872 124.273 78.632L124.621 79.316C124.373 79.572 124.065 79.768 123.697 79.904C123.329 80.04 122.961 80.108 122.593 80.108ZM126.003 80V73.976H126.975V80H126.003ZM131.886 80.108C131.342 80.108 130.874 79.972 130.482 79.7C130.09 79.42 129.826 79.04 129.69 78.56H129.822V80H128.862V71.168H129.834V75.38H129.69C129.826 74.916 130.09 74.548 130.482 74.276C130.874 74.004 131.342 73.868 131.886 73.868C132.43 73.868 132.898 73.996 133.29 74.252C133.69 74.5 133.998 74.856 134.214 75.32C134.438 75.784 134.55 76.34 134.55 76.988C134.55 77.636 134.438 78.192 134.214 78.656C133.99 79.12 133.678 79.48 133.278 79.736C132.886 79.984 132.422 80.108 131.886 80.108ZM131.682 79.316C132.25 79.316 132.706 79.12 133.05 78.728C133.394 78.336 133.566 77.756 133.566 76.988C133.566 76.22 133.394 75.64 133.05 75.248C132.706 74.848 132.25 74.648 131.682 74.648C131.114 74.648 130.658 74.848 130.314 75.248C129.978 75.64 129.81 76.22 129.81 76.988C129.81 77.748 129.978 78.328 130.314 78.728C130.658 79.12 131.114 79.316 131.682 79.316ZM138.205 80.108C137.405 80.108 136.777 79.86 136.321 79.364C135.873 78.86 135.649 78.172 135.649 77.3V76.904H140.329V77.516H136.285L136.489 77.336C136.489 77.984 136.637 78.488 136.933 78.848C137.229 79.2 137.653 79.376 138.205 79.376C138.821 79.376 139.293 79.168 139.621 78.752C139.957 78.336 140.125 77.792 140.125 77.12V76.976C140.125 76.208 139.937 75.628 139.561 75.236C139.193 74.844 138.661 74.648 137.965 74.648C137.629 74.648 137.301 74.704 136.981 74.816C136.669 74.92 136.365 75.1 136.069 75.356L135.769 74.648C136.033 74.392 136.369 74.2 136.777 74.072C137.185 73.936 137.617 73.868 138.073 73.868C138.689 73.868 139.221 73.992 139.669 74.24C140.117 74.48 140.461 74.832 140.701 75.296C140.949 75.76 141.073 76.32 141.073 76.976C141.073 77.6 140.953 78.148 140.713 78.62C140.473 79.092 140.137 79.46 139.705 79.724C139.281 79.98 138.781 80.108 138.205 80.108ZM142.263 82.724L142.035 81.92C142.411 81.832 142.723 81.728 142.971 81.608C143.227 81.496 143.439 81.344 143.607 81.152C143.775 80.96 143.919 80.72 144.039 80.432L144.351 79.724L144.327 80.132L141.699 73.976H142.755L144.927 79.268H144.615L146.763 73.976H147.783L144.999 80.504C144.839 80.888 144.663 81.208 144.471 81.464C144.279 81.728 144.071 81.94 143.847 82.1C143.631 82.268 143.391 82.4 143.127 82.496C142.863 82.592 142.575 82.668 142.263 82.724ZM148.878 80V71.168H149.85V80H148.878ZM151.737 80V73.976H152.709V80H151.737ZM151.617 72.608V71.516H152.817V72.608H151.617ZM157.725 80V71.168H158.697V76.652H158.721L161.517 73.976H162.741L159.441 77.12L159.465 76.628L163.053 80H161.793L158.721 77.168H158.697V80H157.725ZM166.025 80.108C165.313 80.108 164.773 79.912 164.405 79.52C164.045 79.128 163.865 78.528 163.865 77.72V73.976H164.837V77.696C164.837 78.248 164.949 78.656 165.173 78.92C165.397 79.176 165.745 79.304 166.217 79.304C166.745 79.304 167.169 79.132 167.489 78.788C167.809 78.444 167.969 77.984 167.969 77.408V73.976H168.941V80H167.993V78.644H168.149C167.981 79.108 167.709 79.468 167.333 79.724C166.965 79.98 166.529 80.108 166.025 80.108ZM166.949 72.68V71.648H167.981V72.68H166.949ZM164.861 72.68V71.648H165.893V72.68H164.861ZM173.359 80.108C172.767 80.108 172.251 79.98 171.811 79.724C171.379 79.468 171.043 79.104 170.803 78.632C170.571 78.16 170.455 77.6 170.455 76.952C170.455 76.296 170.575 75.74 170.815 75.284C171.055 74.82 171.391 74.468 171.823 74.228C172.263 73.988 172.775 73.868 173.359 73.868C173.743 73.868 174.115 73.936 174.475 74.072C174.843 74.208 175.147 74.4 175.387 74.648L175.039 75.344C174.799 75.112 174.535 74.94 174.247 74.828C173.967 74.716 173.691 74.66 173.419 74.66C172.795 74.66 172.311 74.856 171.967 75.248C171.623 75.64 171.451 76.212 171.451 76.964C171.451 77.708 171.623 78.284 171.967 78.692C172.311 79.1 172.795 79.304 173.419 79.304C173.683 79.304 173.955 79.252 174.235 79.148C174.523 79.044 174.791 78.872 175.039 78.632L175.387 79.316C175.139 79.572 174.831 79.768 174.463 79.904C174.095 80.04 173.727 80.108 173.359 80.108ZM173.359 82.304C173.151 82.304 172.951 82.284 172.759 82.244C172.575 82.204 172.415 82.148 172.279 82.076L172.447 81.548C172.591 81.612 172.727 81.66 172.855 81.692C172.991 81.724 173.147 81.74 173.323 81.74C173.539 81.74 173.711 81.7 173.839 81.62C173.967 81.548 174.031 81.44 174.031 81.296C174.031 81.072 173.879 80.96 173.575 80.96C173.487 80.96 173.399 80.964 173.311 80.972C173.231 80.988 173.131 81.02 173.011 81.068L172.807 80.876L172.987 79.76H173.599L173.443 80.66L173.155 80.588C173.243 80.564 173.335 80.544 173.431 80.528C173.527 80.512 173.615 80.504 173.695 80.504C173.983 80.504 174.223 80.576 174.415 80.72C174.607 80.864 174.703 81.064 174.703 81.32C174.703 81.616 174.579 81.852 174.331 82.028C174.083 82.212 173.759 82.304 173.359 82.304ZM176.694 80V78.776H177.918V80H176.694ZM179.928 81.368L179.472 81.02C179.688 80.796 179.828 80.584 179.892 80.384C179.964 80.192 180 79.996 180 79.796L180.216 80H179.424V78.776H180.648V79.64C180.648 79.96 180.596 80.26 180.492 80.54C180.388 80.828 180.2 81.104 179.928 81.368ZM187.755 80.108C187.227 80.108 186.763 79.984 186.363 79.736C185.963 79.48 185.651 79.12 185.427 78.656C185.211 78.192 185.103 77.636 185.103 76.988C185.103 76.332 185.211 75.772 185.427 75.308C185.651 74.844 185.963 74.488 186.363 74.24C186.763 73.992 187.227 73.868 187.755 73.868C188.299 73.868 188.767 74.004 189.159 74.276C189.559 74.548 189.827 74.916 189.963 75.38H189.819V71.168H190.791V80H189.831V78.56H189.963C189.835 79.04 189.571 79.42 189.171 79.7C188.771 79.972 188.299 80.108 187.755 80.108ZM187.959 79.316C188.527 79.316 188.983 79.12 189.327 78.728C189.671 78.328 189.843 77.748 189.843 76.988C189.843 76.22 189.671 75.64 189.327 75.248C188.983 74.848 188.527 74.648 187.959 74.648C187.391 74.648 186.935 74.848 186.591 75.248C186.255 75.64 186.087 76.22 186.087 76.988C186.087 77.748 186.255 78.328 186.591 78.728C186.935 79.12 187.391 79.316 187.959 79.316ZM195.143 80.108C194.567 80.108 194.063 79.984 193.631 79.736C193.207 79.48 192.879 79.12 192.647 78.656C192.415 78.184 192.299 77.628 192.299 76.988C192.299 76.34 192.415 75.784 192.647 75.32C192.879 74.856 193.207 74.5 193.631 74.252C194.063 73.996 194.567 73.868 195.143 73.868C195.727 73.868 196.231 73.996 196.655 74.252C197.087 74.5 197.419 74.856 197.651 75.32C197.891 75.784 198.011 76.34 198.011 76.988C198.011 77.628 197.891 78.184 197.651 78.656C197.419 79.12 197.087 79.48 196.655 79.736C196.231 79.984 195.727 80.108 195.143 80.108ZM195.143 79.316C195.719 79.316 196.175 79.12 196.511 78.728C196.847 78.328 197.015 77.748 197.015 76.988C197.015 76.22 196.843 75.64 196.499 75.248C196.163 74.848 195.711 74.648 195.143 74.648C194.575 74.648 194.123 74.848 193.787 75.248C193.451 75.64 193.283 76.22 193.283 76.988C193.283 77.748 193.451 78.328 193.787 78.728C194.123 79.12 194.575 79.316 195.143 79.316ZM195.683 72.692V71.66H196.715V72.692H195.683ZM193.595 72.692V71.66H194.627V72.692H193.595ZM199.526 80V75.368C199.526 75.144 199.514 74.916 199.49 74.684C199.474 74.444 199.454 74.208 199.43 73.976H200.366L200.486 75.296H200.342C200.518 74.832 200.798 74.48 201.182 74.24C201.574 73.992 202.026 73.868 202.538 73.868C203.25 73.868 203.786 74.06 204.146 74.444C204.514 74.82 204.698 75.416 204.698 76.232V80H203.726V76.292C203.726 75.724 203.61 75.312 203.378 75.056C203.154 74.792 202.802 74.66 202.322 74.66C201.762 74.66 201.318 74.832 200.99 75.176C200.662 75.52 200.498 75.98 200.498 76.556V80H199.526ZM209.209 82.676C208.689 82.676 208.209 82.612 207.769 82.484C207.329 82.356 206.933 82.16 206.581 81.896L206.869 81.164C207.117 81.34 207.361 81.48 207.601 81.584C207.841 81.688 208.089 81.764 208.345 81.812C208.601 81.868 208.873 81.896 209.161 81.896C209.753 81.896 210.201 81.74 210.505 81.428C210.809 81.116 210.961 80.672 210.961 80.096V78.332H211.081C210.953 78.804 210.689 79.18 210.289 79.46C209.889 79.732 209.421 79.868 208.885 79.868C208.333 79.868 207.853 79.748 207.445 79.508C207.045 79.26 206.733 78.912 206.509 78.464C206.293 78.008 206.185 77.472 206.185 76.856C206.185 76.248 206.293 75.72 206.509 75.272C206.733 74.824 207.045 74.48 207.445 74.24C207.853 73.992 208.333 73.868 208.885 73.868C209.429 73.868 209.897 74.004 210.289 74.276C210.689 74.548 210.953 74.924 211.081 75.404L210.961 75.284L211.069 73.976H212.017C211.985 74.208 211.961 74.444 211.945 74.684C211.929 74.916 211.921 75.144 211.921 75.368V79.964C211.921 80.86 211.689 81.536 211.225 81.992C210.769 82.448 210.097 82.676 209.209 82.676ZM209.065 79.076C209.649 79.076 210.109 78.884 210.445 78.5C210.781 78.108 210.949 77.56 210.949 76.856C210.949 76.152 210.781 75.608 210.445 75.224C210.109 74.84 209.649 74.648 209.065 74.648C208.489 74.648 208.029 74.84 207.685 75.224C207.341 75.608 207.169 76.152 207.169 76.856C207.169 77.56 207.341 78.108 207.685 78.5C208.029 78.884 208.489 79.076 209.065 79.076ZM215.936 80.108C215.136 80.108 214.508 79.86 214.052 79.364C213.604 78.86 213.38 78.172 213.38 77.3V76.904H218.06V77.516H214.016L214.22 77.336C214.22 77.984 214.368 78.488 214.664 78.848C214.96 79.2 215.384 79.376 215.936 79.376C216.552 79.376 217.024 79.168 217.352 78.752C217.688 78.336 217.856 77.792 217.856 77.12V76.976C217.856 76.208 217.668 75.628 217.292 75.236C216.924 74.844 216.392 74.648 215.696 74.648C215.36 74.648 215.032 74.704 214.712 74.816C214.4 74.92 214.096 75.1 213.8 75.356L213.5 74.648C213.764 74.392 214.1 74.2 214.508 74.072C214.916 73.936 215.348 73.868 215.804 73.868C216.42 73.868 216.952 73.992 217.4 74.24C217.848 74.48 218.192 74.832 218.432 75.296C218.68 75.76 218.804 76.32 218.804 76.976C218.804 77.6 218.684 78.148 218.444 78.62C218.204 79.092 217.868 79.46 217.436 79.724C217.012 79.98 216.512 80.108 215.936 80.108ZM224.02 80V79.148H226.012V72.392H226.54L224.212 73.844V72.848L226.288 71.54H227.008V79.148H228.88V80H224.02ZM230.951 81.368L230.495 81.02C230.711 80.796 230.851 80.584 230.915 80.384C230.987 80.192 231.023 79.996 231.023 79.796L231.239 80H230.447V78.776H231.671V79.64C231.671 79.96 231.619 80.26 231.515 80.54C231.411 80.828 231.223 81.104 230.951 81.368ZM235.767 80L239.499 71.54H240.363L244.155 80H243.123L242.067 77.588L242.511 77.84H237.339L237.819 77.588L236.787 80H235.767ZM239.919 72.68L237.975 77.24L237.687 77.024H242.151L241.935 77.24L239.943 72.68H239.919ZM244.774 80V79.268L249.898 72.008V72.392H244.774V71.54H250.846V72.272L245.71 79.52V79.148H250.978V80H244.774ZM252.93 80V79.148H254.922V72.392H255.45L253.122 73.844V72.848L255.198 71.54H255.918V79.148H257.79V80H252.93ZM262.202 80.108C261.242 80.108 260.506 79.736 259.994 78.992C259.482 78.248 259.226 77.172 259.226 75.764C259.226 74.348 259.482 73.272 259.994 72.536C260.506 71.8 261.242 71.432 262.202 71.432C263.17 71.432 263.906 71.8 264.41 72.536C264.922 73.272 265.178 74.344 265.178 75.752C265.178 77.168 264.922 78.248 264.41 78.992C263.898 79.736 263.162 80.108 262.202 80.108ZM262.202 79.244C262.874 79.244 263.374 78.96 263.702 78.392C264.03 77.824 264.194 76.944 264.194 75.752C264.194 74.552 264.03 73.676 263.702 73.124C263.374 72.564 262.874 72.284 262.202 72.284C261.538 72.284 261.038 72.564 260.702 73.124C260.374 73.684 260.21 74.56 260.21 75.752C260.21 76.944 260.374 77.824 260.702 78.392C261.038 78.96 261.538 79.244 262.202 79.244ZM269.673 80.108C268.649 80.108 267.857 79.748 267.297 79.028C266.745 78.3 266.469 77.284 266.469 75.98C266.469 75.004 266.609 74.18 266.889 73.508C267.169 72.828 267.569 72.312 268.089 71.96C268.609 71.608 269.237 71.432 269.973 71.432C270.413 71.432 270.857 71.524 271.305 71.708C271.753 71.884 272.121 72.132 272.409 72.452L272.049 73.22C271.745 72.908 271.413 72.68 271.053 72.536C270.693 72.384 270.329 72.308 269.961 72.308C269.145 72.308 268.517 72.6 268.077 73.184C267.645 73.76 267.429 74.628 267.429 75.788V76.904H267.321C267.377 76.448 267.513 76.056 267.729 75.728C267.953 75.392 268.245 75.136 268.605 74.96C268.965 74.784 269.365 74.696 269.805 74.696C270.317 74.696 270.769 74.808 271.161 75.032C271.553 75.256 271.861 75.572 272.085 75.98C272.309 76.38 272.421 76.84 272.421 77.36C272.421 77.888 272.305 78.36 272.073 78.776C271.841 79.192 271.517 79.52 271.101 79.76C270.685 79.992 270.209 80.108 269.673 80.108ZM269.601 79.268C269.969 79.268 270.293 79.192 270.573 79.04C270.861 78.88 271.081 78.66 271.233 78.38C271.393 78.092 271.473 77.764 271.473 77.396C271.473 77.028 271.393 76.704 271.233 76.424C271.081 76.144 270.861 75.924 270.573 75.764C270.293 75.604 269.969 75.524 269.601 75.524C269.233 75.524 268.909 75.604 268.629 75.764C268.349 75.924 268.129 76.144 267.969 76.424C267.817 76.704 267.741 77.028 267.741 77.396C267.741 77.764 267.817 78.092 267.969 78.38C268.129 78.66 268.349 78.88 268.629 79.04C268.909 79.192 269.233 79.268 269.601 79.268ZM276.028 80.108C275.588 80.108 275.144 80.016 274.696 79.832C274.248 79.64 273.876 79.392 273.58 79.088L273.952 78.308C274.256 78.62 274.588 78.852 274.948 79.004C275.308 79.156 275.672 79.232 276.04 79.232C276.848 79.232 277.468 78.944 277.9 78.368C278.34 77.784 278.56 76.912 278.56 75.752V74.636H278.68C278.632 75.084 278.492 75.476 278.26 75.812C278.036 76.148 277.744 76.404 277.384 76.58C277.032 76.756 276.636 76.844 276.196 76.844C275.684 76.844 275.228 76.732 274.828 76.508C274.436 76.284 274.128 75.968 273.904 75.56C273.68 75.152 273.568 74.692 273.568 74.18C273.568 73.644 273.684 73.172 273.916 72.764C274.156 72.348 274.48 72.024 274.888 71.792C275.304 71.552 275.78 71.432 276.316 71.432C277.348 71.432 278.14 71.792 278.692 72.512C279.252 73.232 279.532 74.248 279.532 75.56C279.532 76.528 279.392 77.352 279.112 78.032C278.832 78.712 278.432 79.228 277.912 79.58C277.392 79.932 276.764 80.108 276.028 80.108ZM276.4 76.016C276.768 76.016 277.092 75.936 277.372 75.776C277.652 75.616 277.868 75.396 278.02 75.116C278.18 74.836 278.26 74.512 278.26 74.144C278.26 73.768 278.18 73.44 278.02 73.16C277.868 72.88 277.652 72.66 277.372 72.5C277.092 72.34 276.768 72.26 276.4 72.26C276.032 72.26 275.704 72.34 275.416 72.5C275.136 72.66 274.916 72.88 274.756 73.16C274.604 73.44 274.528 73.768 274.528 74.144C274.528 74.512 274.604 74.836 274.756 75.116C274.916 75.396 275.136 75.616 275.416 75.776C275.704 75.936 276.032 76.016 276.4 76.016ZM281.448 81.368L280.992 81.02C281.208 80.796 281.348 80.584 281.412 80.384C281.484 80.192 281.52 79.996 281.52 79.796L281.736 80H280.944V78.776H282.168V79.64C282.168 79.96 282.116 80.26 282.012 80.54C281.908 80.828 281.72 81.104 281.448 81.368ZM287.103 80V71.54H290.487C291.383 71.54 292.075 71.732 292.563 72.116C293.051 72.5 293.295 73.044 293.295 73.748C293.295 74.276 293.135 74.716 292.815 75.068C292.503 75.42 292.067 75.652 291.507 75.764V75.596C292.131 75.668 292.619 75.884 292.971 76.244C293.331 76.596 293.511 77.072 293.511 77.672C293.511 78.424 293.259 79 292.755 79.4C292.259 79.8 291.555 80 290.643 80H287.103ZM288.075 79.196H290.547C291.155 79.196 291.635 79.08 291.987 78.848C292.347 78.608 292.527 78.212 292.527 77.66C292.527 77.1 292.347 76.704 291.987 76.472C291.635 76.232 291.155 76.112 290.547 76.112H288.075V79.196ZM288.075 75.32H290.343C290.999 75.32 291.491 75.192 291.819 74.936C292.147 74.68 292.311 74.312 292.311 73.832C292.311 73.336 292.147 72.964 291.819 72.716C291.491 72.46 290.999 72.332 290.343 72.332H288.075V75.32ZM297.443 80.108C296.907 80.108 296.439 79.984 296.039 79.736C295.639 79.48 295.327 79.12 295.103 78.656C294.887 78.192 294.779 77.636 294.779 76.988C294.779 76.332 294.887 75.772 295.103 75.308C295.327 74.844 295.639 74.488 296.039 74.24C296.439 73.992 296.907 73.868 297.443 73.868C297.987 73.868 298.455 74.008 298.847 74.288C299.247 74.56 299.511 74.932 299.639 75.404H299.495L299.627 73.976H300.563C300.539 74.208 300.515 74.444 300.491 74.684C300.475 74.916 300.467 75.144 300.467 75.368V80H299.495V78.584H299.627C299.499 79.056 299.235 79.428 298.835 79.7C298.435 79.972 297.971 80.108 297.443 80.108ZM297.635 79.316C298.211 79.316 298.667 79.12 299.003 78.728C299.339 78.328 299.507 77.748 299.507 76.988C299.507 76.22 299.339 75.64 299.003 75.248C298.667 74.848 298.211 74.648 297.635 74.648C297.067 74.648 296.611 74.848 296.267 75.248C295.931 75.64 295.763 76.22 295.763 76.988C295.763 77.748 295.931 78.328 296.267 78.728C296.611 79.12 297.067 79.316 297.635 79.316ZM302.346 80V71.168H303.318V76.652H303.342L306.138 73.976H307.362L304.062 77.12L304.086 76.628L307.674 80H306.414L303.342 77.168H303.318V80H302.346ZM308.522 80V73.976H309.494V80H308.522ZM311.694 81.368L311.238 81.02C311.454 80.796 311.594 80.584 311.658 80.384C311.73 80.192 311.766 79.996 311.766 79.796L311.982 80H311.19V78.776H312.414V79.64C312.414 79.96 312.362 80.26 312.258 80.54C312.154 80.828 311.966 81.104 311.694 81.368ZM58.216 99L61.948 90.54H62.812L66.604 99H65.572L64.516 96.588L64.96 96.84H59.788L60.268 96.588L59.236 99H58.216ZM62.368 91.68L60.424 96.24L60.136 96.024H64.6L64.384 96.24L62.392 91.68H62.368ZM67.4242 99V98.352L71.4802 93.48L71.4922 93.732H67.4242V92.976H72.3922V93.624L68.2882 98.52L68.2762 98.244H72.5242V99H67.4242ZM76.0257 99.108C75.2257 99.108 74.5977 98.86 74.1417 98.364C73.6937 97.86 73.4697 97.172 73.4697 96.3V95.904H78.1497V96.516H74.1057L74.3097 96.336C74.3097 96.984 74.4577 97.488 74.7537 97.848C75.0497 98.2 75.4737 98.376 76.0257 98.376C76.6417 98.376 77.1137 98.168 77.4417 97.752C77.7777 97.336 77.9457 96.792 77.9457 96.12V95.976C77.9457 95.208 77.7577 94.628 77.3817 94.236C77.0137 93.844 76.4817 93.648 75.7857 93.648C75.4497 93.648 75.1217 93.704 74.8017 93.816C74.4897 93.92 74.1857 94.1 73.8897 94.356L73.5897 93.648C73.8537 93.392 74.1897 93.2 74.5977 93.072C75.0057 92.936 75.4377 92.868 75.8937 92.868C76.5097 92.868 77.0417 92.992 77.4897 93.24C77.9377 93.48 78.2817 93.832 78.5217 94.296C78.7697 94.76 78.8937 95.32 78.8937 95.976C78.8937 96.6 78.7737 97.148 78.5337 97.62C78.2937 98.092 77.9577 98.46 77.5257 98.724C77.1017 98.98 76.6017 99.108 76.0257 99.108ZM80.381 99V94.428C80.381 94.188 80.373 93.944 80.357 93.696C80.349 93.448 80.333 93.208 80.309 92.976H81.245L81.365 94.44L81.197 94.452C81.277 94.092 81.417 93.796 81.617 93.564C81.817 93.332 82.053 93.16 82.325 93.048C82.597 92.928 82.881 92.868 83.177 92.868C83.297 92.868 83.401 92.872 83.489 92.88C83.585 92.888 83.673 92.908 83.753 92.94L83.741 93.804C83.621 93.764 83.509 93.74 83.405 93.732C83.309 93.716 83.197 93.708 83.069 93.708C82.717 93.708 82.409 93.792 82.145 93.96C81.889 94.128 81.693 94.344 81.557 94.608C81.429 94.872 81.365 95.152 81.365 95.448V99H80.381ZM87.7884 99.108C87.2444 99.108 86.7764 98.972 86.3844 98.7C85.9924 98.42 85.7284 98.04 85.5924 97.56H85.7244V99H84.7644V90.168H85.7364V94.38H85.5924C85.7284 93.916 85.9924 93.548 86.3844 93.276C86.7764 93.004 87.2444 92.868 87.7884 92.868C88.3324 92.868 88.8004 92.996 89.1924 93.252C89.5924 93.5 89.9004 93.856 90.1164 94.32C90.3404 94.784 90.4524 95.34 90.4524 95.988C90.4524 96.636 90.3404 97.192 90.1164 97.656C89.8924 98.12 89.5804 98.48 89.1804 98.736C88.7884 98.984 88.3244 99.108 87.7884 99.108ZM87.5844 98.316C88.1524 98.316 88.6084 98.12 88.9524 97.728C89.2964 97.336 89.4684 96.756 89.4684 95.988C89.4684 95.22 89.2964 94.64 88.9524 94.248C88.6084 93.848 88.1524 93.648 87.5844 93.648C87.0164 93.648 86.5604 93.848 86.2164 94.248C85.8804 94.64 85.7124 95.22 85.7124 95.988C85.7124 96.748 85.8804 97.328 86.2164 97.728C86.5604 98.12 87.0164 98.316 87.5844 98.316ZM94.2517 99.108C93.7157 99.108 93.2477 98.984 92.8477 98.736C92.4477 98.48 92.1357 98.12 91.9117 97.656C91.6957 97.192 91.5877 96.636 91.5877 95.988C91.5877 95.332 91.6957 94.772 91.9117 94.308C92.1357 93.844 92.4477 93.488 92.8477 93.24C93.2477 92.992 93.7157 92.868 94.2517 92.868C94.7957 92.868 95.2637 93.008 95.6557 93.288C96.0557 93.56 96.3197 93.932 96.4477 94.404H96.3037L96.4357 92.976H97.3717C97.3477 93.208 97.3237 93.444 97.2997 93.684C97.2837 93.916 97.2757 94.144 97.2757 94.368V99H96.3037V97.584H96.4357C96.3077 98.056 96.0437 98.428 95.6437 98.7C95.2437 98.972 94.7797 99.108 94.2517 99.108ZM94.4437 98.316C95.0197 98.316 95.4757 98.12 95.8117 97.728C96.1477 97.328 96.3157 96.748 96.3157 95.988C96.3157 95.22 96.1477 94.64 95.8117 94.248C95.4757 93.848 95.0197 93.648 94.4437 93.648C93.8757 93.648 93.4197 93.848 93.0757 94.248C92.7397 94.64 92.5717 95.22 92.5717 95.988C92.5717 96.748 92.7397 97.328 93.0757 97.728C93.4197 98.12 93.8757 98.316 94.4437 98.316ZM98.8564 101.724L98.6284 100.92C99.0044 100.832 99.3164 100.728 99.5644 100.608C99.8204 100.496 100.032 100.344 100.2 100.152C100.368 99.96 100.512 99.72 100.632 99.432L100.944 98.724L100.92 99.132L98.2924 92.976H99.3484L101.52 98.268H101.208L103.356 92.976H104.376L101.592 99.504C101.432 99.888 101.256 100.208 101.064 100.464C100.872 100.728 100.664 100.94 100.44 101.1C100.224 101.268 99.9844 101.4 99.7204 101.496C99.4564 101.592 99.1684 101.668 98.8564 101.724ZM107.921 99.108C107.329 99.108 106.813 98.98 106.373 98.724C105.941 98.468 105.605 98.104 105.365 97.632C105.133 97.16 105.017 96.6 105.017 95.952C105.017 95.296 105.137 94.74 105.377 94.284C105.617 93.82 105.953 93.468 106.385 93.228C106.825 92.988 107.337 92.868 107.921 92.868C108.305 92.868 108.677 92.936 109.037 93.072C109.405 93.208 109.709 93.4 109.949 93.648L109.601 94.344C109.361 94.112 109.097 93.94 108.809 93.828C108.529 93.716 108.253 93.66 107.981 93.66C107.357 93.66 106.873 93.856 106.529 94.248C106.185 94.64 106.013 95.212 106.013 95.964C106.013 96.708 106.185 97.284 106.529 97.692C106.873 98.1 107.357 98.304 107.981 98.304C108.245 98.304 108.517 98.252 108.797 98.148C109.085 98.044 109.353 97.872 109.601 97.632L109.949 98.316C109.701 98.572 109.393 98.768 109.025 98.904C108.657 99.04 108.289 99.108 107.921 99.108ZM113.576 99.108C113.04 99.108 112.572 98.984 112.172 98.736C111.772 98.48 111.46 98.12 111.236 97.656C111.02 97.192 110.912 96.636 110.912 95.988C110.912 95.332 111.02 94.772 111.236 94.308C111.46 93.844 111.772 93.488 112.172 93.24C112.572 92.992 113.04 92.868 113.576 92.868C114.12 92.868 114.588 93.008 114.98 93.288C115.38 93.56 115.644 93.932 115.772 94.404H115.628L115.76 92.976H116.696C116.672 93.208 116.648 93.444 116.624 93.684C116.608 93.916 116.6 94.144 116.6 94.368V99H115.628V97.584H115.76C115.632 98.056 115.368 98.428 114.968 98.7C114.568 98.972 114.104 99.108 113.576 99.108ZM113.768 98.316C114.344 98.316 114.8 98.12 115.136 97.728C115.472 97.328 115.64 96.748 115.64 95.988C115.64 95.22 115.472 94.64 115.136 94.248C114.8 93.848 114.344 93.648 113.768 93.648C113.2 93.648 112.744 93.848 112.4 94.248C112.064 94.64 111.896 95.22 111.896 95.988C111.896 96.748 112.064 97.328 112.4 97.728C112.744 98.12 113.2 98.316 113.768 98.316ZM118.479 99V94.368C118.479 94.144 118.467 93.916 118.443 93.684C118.427 93.444 118.407 93.208 118.383 92.976H119.319L119.439 94.296H119.295C119.471 93.832 119.751 93.48 120.135 93.24C120.527 92.992 120.979 92.868 121.491 92.868C122.203 92.868 122.739 93.06 123.099 93.444C123.467 93.82 123.651 94.416 123.651 95.232V99H122.679V95.292C122.679 94.724 122.563 94.312 122.331 94.056C122.107 93.792 121.755 93.66 121.275 93.66C120.715 93.66 120.271 93.832 119.943 94.176C119.615 94.52 119.451 94.98 119.451 95.556V99H118.479Z" fill="black"/>
<path d="M46 84.6666C46 89.3333 40 93.3333 40 93.3333C40 93.3333 34 89.3333 34 84.6666C34 83.0753 34.6321 81.5492 35.7574 80.424C36.8826 79.2988 38.4087 78.6666 40 78.6666C41.5913 78.6666 43.1174 79.2988 44.2426 80.424C45.3679 81.5492 46 83.0753 46 84.6666Z" stroke="#CCCCCC" stroke-linecap="round" stroke-linejoin="round"/>
<path d="M40 86.6666C41.1046 86.6666 42 85.7712 42 84.6666C42 83.5621 41.1046 82.6666 40 82.6666C38.8954 82.6666 38 83.5621 38 84.6666C38 85.7712 38.8954 86.6666 40 86.6666Z" stroke="#CCCCCC" stroke-linecap="round" stroke-linejoin="round"/>
<defs>
<filter id="filter0_d_1_266" x="0" y="0" width="370" height="208" filterUnits="userSpaceOnUse" color-interpolation-filters="sRGB">
<feFlood flood-opacity="0" result="BackgroundImageFix"/>
<feColorMatrix in="SourceAlpha" type="matrix" values="0 0 0 0 0 0 0 0 0 0 0 0 0 0 0 0 0 0 127 0" result="hardAlpha"/>
<feOffset dy="6"/>
<feGaussianBlur stdDeviation="8"/>
<feComposite in2="hardAlpha" operator="out"/>
<feColorMatrix type="matrix" values="0 0 0 0 0 0 0 0 0 0 0 0 0 0 0 0 0 0 0.16 0"/>
<feBlend mode="normal" in2="BackgroundImageFix" result="effect1_dropShadow_1_266"/>
<feBlend mode="normal" in="SourceGraphic" in2="effect1_dropShadow_1_266" result="shape"/>
</filter>
<clipPath id="clip0_1_266">
<rect width="16" height="16" fill="white" transform="translate(32 117)"/>
</clipPath>
</defs>
</svg>
