<svg width="41" height="44" viewBox="0 0 41 44" fill="none" xmlns="http://www.w3.org/2000/svg">
<g filter="url(#filter0_d_1_101)">
<path d="M20.293 17.3831L21.6589 16.0175C22.178 16.2963 22.771 16.4548 23.4002 16.4548C25.4376 16.4548 27.0952 14.7975 27.0952 12.7601C27.0952 10.7229 25.4376 9.06537 23.4002 9.06537C21.3631 9.06537 19.7055 10.7229 19.7055 12.7601C19.7055 13.3893 19.8643 13.9823 20.1428 14.5014L18.7769 15.8673L8.99713 6.08725C8.79608 5.8862 8.52335 5.77304 8.23908 5.77304C7.95481 5.77304 7.68207 5.8862 7.48102 6.08725C5.21894 8.34933 4.31833 11.6675 4.94538 15.4306C5.39032 18.1003 6.5741 20.7724 8.35031 23.1814L4.06894 34.5501C3.9448 34.8794 3.99012 35.2485 4.19034 35.538C4.39084 35.8272 4.72016 36 5.07199 36H20.0799C20.4372 36 20.7706 35.8223 20.9698 35.5257C21.1689 35.2296 21.2073 34.8533 21.0725 34.5226L19.6302 30.9891C19.9961 31.0779 20.363 31.1537 20.7297 31.2146C21.5108 31.3448 22.2727 31.4091 23.0102 31.4091C25.8246 31.4091 28.2803 30.4717 30.0727 28.6793C30.2738 28.4782 30.387 28.2055 30.387 27.9212C30.387 27.6369 30.2741 27.3642 30.0727 27.1631L20.293 17.3831ZM23.4005 11.2096C24.2555 11.2096 24.9509 11.9051 24.9509 12.7601C24.9509 13.6151 24.2555 14.3105 23.4005 14.3105C22.5455 14.3105 21.8498 13.6151 21.8498 12.7601C21.8498 11.9051 22.5455 11.2096 23.4005 11.2096ZM21.0821 29.0995C17.8886 28.5675 14.6661 26.8105 12.0077 24.1523C9.34979 21.4942 7.59281 18.2716 7.06052 15.0779C6.62409 12.4604 7.06381 10.1401 8.30032 8.42267L27.7373 27.8597C26.0199 29.0962 23.6996 29.5359 21.0821 29.0995ZM18.4844 33.8557H6.62134L9.92603 25.0815C10.1103 25.2798 10.2987 25.4756 10.4915 25.6685C12.4243 27.6012 14.6383 29.1096 16.949 30.0948L18.4844 33.8557Z" fill="#E4002C"/>
<path d="M23.4004 4.56592C22.8082 4.56592 22.3281 5.04575 22.3281 5.63791C22.3281 6.23007 22.8082 6.7099 23.4004 6.7099C26.7364 6.7099 29.4506 9.42407 29.4506 12.7601C29.4506 13.3522 29.9304 13.8323 30.5226 13.8323C31.1147 13.8323 31.5945 13.3522 31.5945 12.7601C31.5945 8.24167 27.9188 4.56592 23.4004 4.56592Z" fill="#E4002C"/>
<path d="M23.4004 0C22.8082 0 22.3281 0.480103 22.3281 1.07199C22.3281 1.66415 22.8082 2.14426 23.4004 2.14426C29.2539 2.14426 34.0162 6.90656 34.0162 12.7601C34.0162 13.3522 34.4963 13.8323 35.0882 13.8323C35.6804 13.8323 36.1605 13.3522 36.1605 12.7601C36.1605 5.72415 30.4363 0 23.4004 0Z" fill="#E4002C"/>
</g>
<defs>
<filter id="filter0_d_1_101" x="0" y="0" width="44" height="44" filterUnits="userSpaceOnUse" color-interpolation-filters="sRGB">
<feFlood flood-opacity="0" result="BackgroundImageFix"/>
<feColorMatrix in="SourceAlpha" type="matrix" values="0 0 0 0 0 0 0 0 0 0 0 0 0 0 0 0 0 0 127 0" result="hardAlpha"/>
<feOffset dy="4"/>
<feGaussianBlur stdDeviation="2"/>
<feComposite in2="hardAlpha" operator="out"/>
<feColorMatrix type="matrix" values="0 0 0 0 0 0 0 0 0 0 0 0 0 0 0 0 0 0 0.25 0"/>
<feBlend mode="normal" in2="BackgroundImageFix" result="effect1_dropShadow_1_101"/>
<feBlend mode="normal" in="SourceGraphic" in2="effect1_dropShadow_1_101" result="shape"/>
</filter>
</defs>
</svg>
