<svg width="36" height="36" viewBox="0 0 36 36" fill="none" xmlns="http://www.w3.org/2000/svg">
<g clip-path="url(#clip0_1_114)">
<path d="M35.6705 0.329593C35.4595 0.118644 35.1734 0.000137329 34.875 0.000137329C34.5767 0.000137329 34.2906 0.118644 34.0796 0.329593L32.0414 2.36802L30.7696 1.09691C30.6584 0.985445 30.525 0.898633 30.378 0.842122C30.231 0.78561 30.0738 0.760664 29.9165 0.768905L18.0184 1.37943C17.7403 1.39365 17.4774 1.51052 17.2806 1.70744L0.329582 18.6584C0.118612 18.8694 9.15527e-05 19.1555 9.15527e-05 19.4539C9.15527e-05 19.7522 0.118612 20.0384 0.329582 20.2493L15.7507 35.6705C15.9617 35.8815 16.2478 36 16.5462 36C16.8446 36 17.1307 35.8815 17.3417 35.6705L34.2926 18.7196C34.4895 18.5227 34.6064 18.2598 34.6206 17.9818L35.2316 6.08362C35.2396 5.92639 35.2146 5.76921 35.1581 5.62226C35.1016 5.4753 35.0149 5.34185 34.9036 5.23052L33.632 3.95899L35.6705 1.92048C35.8814 1.70951 35.9999 1.42338 35.9999 1.12504C35.9999 0.826694 35.8814 0.540567 35.6705 0.329593ZM32.9589 6.46788L32.3958 17.4345L16.5462 33.2841L2.71606 19.4539L18.5657 3.60426L29.5324 3.0412L30.4501 3.95899L28.125 6.28408C27.3181 5.85793 26.385 5.73537 25.4954 5.93865C24.6057 6.14194 23.8185 6.6576 23.2767 7.39195C22.7349 8.1263 22.4745 9.03062 22.5428 9.94064C22.6111 10.8507 23.0035 11.706 23.6488 12.3513C24.2941 12.9966 25.1494 13.389 26.0594 13.4573C26.9694 13.5256 27.8738 13.2651 28.6081 12.7234C29.3425 12.1816 29.8581 11.3944 30.0614 10.5047C30.2647 9.61506 30.1421 8.68201 29.716 7.87504L32.0414 5.54995L32.9589 6.46788ZM27.4494 8.55075C27.7051 8.80637 27.8642 9.14275 27.8997 9.50255C27.9351 9.86235 27.8447 10.2233 27.6439 10.524C27.4431 10.8246 27.1442 11.0463 26.7982 11.1512C26.4522 11.2562 26.0806 11.238 25.7465 11.0996C25.4125 10.9613 25.1368 10.7114 24.9663 10.3925C24.7959 10.0737 24.7413 9.70557 24.8118 9.35097C24.8824 8.99637 25.0737 8.6772 25.3532 8.44785C25.6327 8.21849 25.983 8.09314 26.3446 8.09315C26.7589 8.09332 27.1562 8.25784 27.4494 8.55061V8.55075ZM22.6921 18.9162C22.7976 19.0205 22.8815 19.1445 22.9389 19.2813C22.9962 19.418 23.026 19.5648 23.0265 19.7131C23.0269 19.8614 22.998 20.0084 22.9415 20.1455C22.8849 20.2826 22.8018 20.4072 22.697 20.512C22.5921 20.6169 22.4675 20.7 22.3304 20.7565C22.1933 20.8131 22.0464 20.842 21.8981 20.8415C21.7497 20.8411 21.603 20.8113 21.4662 20.7539C21.3295 20.6965 21.2054 20.6127 21.1012 20.5072L15.4929 14.8993C15.3874 14.795 15.3035 14.671 15.2461 14.5342C15.1888 14.3974 15.159 14.2507 15.1585 14.1024C15.1581 13.9541 15.187 13.8071 15.2435 13.67C15.3001 13.5329 15.3832 13.4083 15.488 13.3035C15.5929 13.1986 15.7175 13.1155 15.8546 13.0589C15.9917 13.0024 16.1386 12.9735 16.287 12.974C16.4353 12.9744 16.582 13.0042 16.7188 13.0616C16.8556 13.1189 16.9796 13.2028 17.0839 13.3083L22.6921 18.9162ZM18.3964 23.2119C18.502 23.3161 18.5858 23.4402 18.6432 23.577C18.7006 23.7137 18.7303 23.8605 18.7308 24.0088C18.7312 24.1571 18.7024 24.304 18.6458 24.4411C18.5893 24.5783 18.5062 24.7028 18.4013 24.8077C18.2964 24.9126 18.1718 24.9957 18.0347 25.0522C17.8976 25.1088 17.7507 25.1377 17.6024 25.1372C17.4541 25.1368 17.3073 25.107 17.1705 25.0496C17.0338 24.9922 16.9097 24.9084 16.8055 24.8029L11.1972 19.1946C10.9884 18.9832 10.8716 18.6977 10.8725 18.4005C10.8734 18.1033 10.9919 17.8186 11.202 17.6084C11.4122 17.3983 11.6969 17.2798 11.9941 17.2789C12.2913 17.278 12.5768 17.3948 12.7882 17.6036L18.3964 23.2119Z" fill="#E4002C"/>
</g>
<defs>
<clipPath id="clip0_1_114">
<rect width="36" height="36" fill="white"/>
</clipPath>
</defs>
</svg>
