<svg width="36" height="36" viewBox="0 0 36 36" fill="none" xmlns="http://www.w3.org/2000/svg">
<path d="M16.293 17.383L17.6589 16.0174C18.178 16.2962 18.771 16.4547 19.4002 16.4547C21.4376 16.4547 23.0952 14.7974 23.0952 12.76C23.0952 10.7228 21.4376 9.06528 19.4002 9.06528C17.3631 9.06528 15.7055 10.7228 15.7055 12.76C15.7055 13.3892 15.8643 13.9822 16.1428 14.5013L14.7769 15.8672L4.99713 6.08716C4.79608 5.88611 4.52335 5.77295 4.23908 5.77295C3.95481 5.77295 3.68207 5.88611 3.48102 6.08716C1.21894 8.34924 0.318332 11.6674 0.945376 15.4305C1.39032 18.1002 2.5741 20.7723 4.35031 23.1813L0.0689424 34.55C-0.0552031 34.8793 -0.00988449 35.2484 0.190341 35.5379C0.390842 35.8271 0.720157 35.9999 1.07199 35.9999H16.0799C16.4372 35.9999 16.7706 35.8222 16.9698 35.5256C17.1689 35.2295 17.2073 34.8532 17.0725 34.5225L15.6302 30.989C15.9961 31.0778 16.363 31.1536 16.7297 31.2145C17.5108 31.3447 18.2727 31.409 19.0102 31.409C21.8246 31.409 24.2803 30.4716 26.0727 28.6792C26.2738 28.4781 26.387 28.2054 26.387 27.9211C26.387 27.6368 26.2741 27.3641 26.0727 27.1631L16.293 17.383ZM19.4005 11.2095C20.2555 11.2095 20.9509 11.905 20.9509 12.76C20.9509 13.615 20.2555 14.3104 19.4005 14.3104C18.5455 14.3104 17.8498 13.615 17.8498 12.76C17.8498 11.905 18.5455 11.2095 19.4005 11.2095ZM17.0821 29.0994C13.8886 28.5674 10.6661 26.8104 8.00766 24.1523C5.34979 21.4941 3.59281 18.2715 3.06052 15.0778C2.62409 12.4603 3.06381 10.14 4.30032 8.42258L23.7373 27.8596C22.0199 29.0961 19.6996 29.5358 17.0821 29.0994ZM14.4844 33.8557H2.62134L5.92603 25.0814C6.11032 25.2797 6.29874 25.4756 6.49155 25.6684C8.42432 27.6011 10.6383 29.1096 12.949 30.0948L14.4844 33.8557Z" fill="#E4002C"/>
<path d="M19.4004 4.56592C18.8082 4.56592 18.3281 5.04575 18.3281 5.63791C18.3281 6.23007 18.8082 6.7099 19.4004 6.7099C22.7364 6.7099 25.4506 9.42407 25.4506 12.7601C25.4506 13.3522 25.9304 13.8323 26.5226 13.8323C27.1147 13.8323 27.5945 13.3522 27.5945 12.7601C27.5945 8.24167 23.9188 4.56592 19.4004 4.56592Z" fill="#E4002C"/>
<path d="M19.4004 0C18.8082 0 18.3281 0.480103 18.3281 1.07199C18.3281 1.66415 18.8082 2.14426 19.4004 2.14426C25.2539 2.14426 30.0162 6.90656 30.0162 12.7601C30.0162 13.3522 30.4963 13.8323 31.0882 13.8323C31.6804 13.8323 32.1605 13.3522 32.1605 12.7601C32.1605 5.72415 26.4363 0 19.4004 0Z" fill="#E4002C"/>
</svg>
