<svg width="16" height="17" viewBox="0 0 16 17" fill="none" xmlns="http://www.w3.org/2000/svg">
<g clip-path="url(#clip0_1_1126)">
<path d="M12.5003 2.09448C12.5003 1.81834 12.2765 1.59448 12.0003 1.59448H10.0003C8.98348 1.59448 8.00839 1.9989 7.28955 2.71858C6.57072 3.43824 6.16699 4.41418 6.16699 5.43168V6.934H4.66699C4.39085 6.934 4.16699 7.15786 4.16699 7.434V10.1038C4.16699 10.3799 4.39085 10.6038 4.66699 10.6038H6.16699V15.4433C6.16699 15.7194 6.39085 15.9433 6.66699 15.9433H9.33366C9.6098 15.9433 9.83366 15.7194 9.83366 15.4433V10.6038H11.3337C11.5631 10.6038 11.7632 10.4475 11.8188 10.2249L12.4854 7.55514C12.5227 7.40578 12.4891 7.24757 12.3944 7.12624C12.2996 7.00491 12.1543 6.934 12.0003 6.934H9.83366V5.43168C9.83366 5.38709 9.85136 5.34444 9.88268 5.31308C9.91398 5.28174 9.95631 5.26424 10.0003 5.26424H12.0003C12.2765 5.26424 12.5003 5.04038 12.5003 4.76424V2.09448Z" stroke="black" stroke-opacity="0.8" stroke-linecap="round" stroke-linejoin="round"/>
</g>
<defs>
<clipPath id="clip0_1_1126">
<rect width="16" height="16.0186" fill="white" transform="translate(0 0.759766)"/>
</clipPath>
</defs>
</svg>
