<svg width="16" height="17" viewBox="0 0 16 17" fill="none" xmlns="http://www.w3.org/2000/svg">
<path d="M11.333 2.09448H4.66634C2.82539 2.09448 1.33301 3.5886 1.33301 5.43168V12.1061C1.33301 13.9492 2.82539 15.4433 4.66634 15.4433H11.333C13.174 15.4433 14.6663 13.9492 14.6663 12.1061V5.43168C14.6663 3.5886 13.174 2.09448 11.333 2.09448Z" stroke="black" stroke-opacity="0.8" stroke-linecap="round" stroke-linejoin="round"/>
<path d="M10.6658 8.34846C10.7481 8.90394 10.6533 9.47124 10.395 9.96969C10.1367 10.4681 9.72792 10.8723 9.22691 11.1248C8.72589 11.3773 8.15812 11.4651 7.60434 11.3759C7.05057 11.2867 6.53899 11.025 6.14238 10.6279C5.74577 10.2308 5.48431 9.71863 5.3952 9.16422C5.30609 8.6098 5.39386 8.04137 5.64604 7.53978C5.89821 7.03818 6.30194 6.62897 6.79981 6.37033C7.29768 6.1117 7.86432 6.01682 8.41915 6.09919C8.9851 6.18321 9.50905 6.44724 9.91362 6.85227C10.3182 7.2573 10.5819 7.78186 10.6658 8.34846Z" stroke="black" stroke-opacity="0.8" stroke-linecap="round" stroke-linejoin="round"/>
<path d="M11.666 5.0979H11.676" stroke="black" stroke-opacity="0.8" stroke-linecap="round" stroke-linejoin="round"/>
</svg>
