<svg width="35" height="35" viewBox="0 0 35 35" fill="none" xmlns="http://www.w3.org/2000/svg">
<g clip-path="url(#clip0_1_146)">
<path d="M17.4317 31.8896C18.6776 31.8896 19.6876 30.8797 19.6876 29.6338C19.6876 28.3879 18.6776 27.3779 17.4317 27.3779C16.1858 27.3779 15.1758 28.3879 15.1758 29.6338C15.1758 30.8797 16.1858 31.8896 17.4317 31.8896Z" fill="#E4002C"/>
<path d="M34.633 10.5864C30.1398 5.76549 24.0553 3.11042 17.4998 3.11035C10.9448 3.11042 4.86036 5.76549 0.367031 10.5864C-0.147714 11.1387 -0.117295 12.0039 0.435048 12.5187C0.98746 13.0334 1.85255 13.0031 2.36736 12.4507C6.33767 8.19081 11.7118 5.84479 17.5003 5.84472C23.2882 5.84479 28.6624 8.19081 32.6327 12.4507C32.9019 12.7396 33.2671 12.8857 33.6331 12.8857C33.9669 12.8857 34.3015 12.7642 34.565 12.5187C35.1173 12.0038 35.1478 11.1387 34.633 10.5864Z" fill="#E4002C"/>
<path d="M29.613 16.2324C26.2917 12.886 21.9899 11.0431 17.5 11.0432C13.0092 11.0433 8.70731 12.8863 5.38696 16.2326C4.85512 16.7686 4.85847 17.6342 5.39448 18.1661C5.93048 18.6979 6.79612 18.6945 7.32795 18.1585C10.131 15.3335 13.7435 13.7777 17.5 13.7776C21.2556 13.7775 24.8681 15.3334 27.6722 18.1587C27.9395 18.4279 28.291 18.5627 28.6426 18.5627C28.9907 18.5627 29.3391 18.4305 29.6058 18.1659C30.1417 17.634 30.1449 16.7684 29.613 16.2324Z" fill="#E4002C"/>
<path d="M24.1409 21.895C22.3622 20.1327 19.8126 19.0381 17.4869 19.0381C17.4866 19.0381 17.4861 19.0381 17.4859 19.0381H17.3874C17.3869 19.0381 17.3867 19.0381 17.3863 19.0381C15.0605 19.0381 12.5107 20.1328 10.7321 21.895C10.1957 22.4264 10.1917 23.292 10.7231 23.8284C10.9905 24.0983 11.3424 24.2334 11.6944 24.2334C12.0421 24.2334 12.39 24.1015 12.6565 23.8375C13.9228 22.5829 15.7792 21.7725 17.3865 21.7725C17.3867 21.7725 17.3869 21.7725 17.3871 21.7725H17.4861C17.4863 21.7725 17.4864 21.7725 17.4867 21.7725C19.0937 21.7725 20.9503 22.583 22.2164 23.8375C22.7527 24.3688 23.6185 24.365 24.1499 23.8284C24.6814 23.2921 24.6773 22.4264 24.1409 21.895Z" fill="#E4002C"/>
</g>
<defs>
<clipPath id="clip0_1_146">
<rect width="35" height="35" fill="white"/>
</clipPath>
</defs>
</svg>
