<svg width="16" height="16" viewBox="0 0 16 16" fill="none" xmlns="http://www.w3.org/2000/svg">
<path d="M14.666 14.3997C14.8869 14.3997 15.066 14.2206 15.066 13.9997V9.33301C15.066 8.16606 14.6024 7.0469 13.7773 6.22174C12.9521 5.39658 11.833 4.93301 10.666 4.93301C9.49906 4.93301 8.37991 5.39658 7.55475 6.22174C6.72959 7.0469 6.26602 8.16606 6.26602 9.33301V13.9997C6.26602 14.2206 6.4451 14.3997 6.66602 14.3997H9.33268C9.5536 14.3997 9.73268 14.2206 9.73268 13.9997V9.33301C9.73268 9.08547 9.83102 8.84808 10.006 8.67304C10.1811 8.49801 10.4185 8.39967 10.666 8.39967C10.9136 8.39967 11.1509 8.49801 11.326 8.67304C11.501 8.84808 11.5993 9.08547 11.5993 9.33301V13.9997C11.5993 14.2206 11.7784 14.3997 11.9993 14.3997H14.666Z" stroke="black" stroke-opacity="0.8" stroke-width="0.8" stroke-linecap="round" stroke-linejoin="round"/>
<path d="M4.39967 5.99963C4.39967 5.77872 4.22059 5.59963 3.99967 5.59963H1.33301C1.11209 5.59963 0.933008 5.77872 0.933008 5.99963V13.9996C0.933008 14.2205 1.11209 14.3996 1.33301 14.3996H3.99967C4.22059 14.3996 4.39967 14.2205 4.39967 13.9996V5.99963Z" stroke="black" stroke-opacity="0.8" stroke-width="0.8" stroke-linecap="round" stroke-linejoin="round"/>
<path d="M2.66634 4.39967C3.62363 4.39967 4.39967 3.62363 4.39967 2.66634C4.39967 1.70905 3.62363 0.933008 2.66634 0.933008C1.70905 0.933008 0.933008 1.70905 0.933008 2.66634C0.933008 3.62363 1.70905 4.39967 2.66634 4.39967Z" stroke="black" stroke-opacity="0.8" stroke-width="0.8" stroke-linecap="round" stroke-linejoin="round"/>
</svg>
