<svg width="113" height="28" viewBox="0 0 113 28" fill="none" xmlns="http://www.w3.org/2000/svg">
<g clip-path="url(#clip0_303_6085)">
<path d="M26.2465 9.03788C26.3244 8.5963 26.3667 8.14505 26.3667 7.68091C26.3667 7.21677 26.3244 6.76229 26.2465 6.32394C25.6001 2.73329 22.4297 6.55296e-06 18.6259 6.55296e-06H4.64186C2.72859 -0.00321665 1.06545 1.18292 0.422282 2.86544C0.243624 3.3328 0.146175 3.83885 0.142926 4.36423C0.133181 5.65996 0.65941 6.82998 1.51372 7.67768C2.35504 8.5125 3.51469 9.03143 4.79778 9.03788H15.6017C15.7414 9.29896 15.9168 9.53747 16.1247 9.74376C16.1702 9.78888 16.2189 9.83401 16.2676 9.87913C16.3163 9.92104 16.3683 9.96294 16.4203 10.0016C16.4723 10.0403 16.5275 10.079 16.5827 10.1144C16.6932 10.1853 16.8068 10.2498 16.927 10.3078C17.0472 10.3658 17.1707 10.4142 17.2973 10.4561C17.5832 10.5496 17.8918 10.6011 18.2101 10.6011C18.5285 10.6011 18.837 10.5496 19.1229 10.4561C19.2496 10.4142 19.373 10.3658 19.4932 10.3078C19.6134 10.2498 19.7271 10.1853 19.8375 10.1144C19.8928 10.079 19.9447 10.0403 19.9999 10.0016C20.0519 9.96294 20.1039 9.92104 20.1526 9.87913C20.2013 9.83723 20.2501 9.79211 20.2955 9.74376C20.5034 9.53747 20.6821 9.29896 20.8185 9.03788C20.8445 8.98631 20.8705 8.93473 20.8932 8.88316C20.929 8.80581 20.9615 8.722 20.9907 8.64142C21.0979 8.34166 21.1531 8.01612 21.1531 7.68091C21.1531 7.19098 21.0329 6.72684 20.8153 6.32394C20.7081 6.12088 20.5781 5.93071 20.4255 5.75988C20.3833 5.71153 20.3378 5.66318 20.2923 5.61806C19.7596 5.08945 19.0222 4.76068 18.2069 4.76068C17.3915 4.76068 16.6542 5.08945 16.1214 5.61806C16.076 5.66318 16.0305 5.71153 15.9883 5.75988C15.8356 5.93071 15.7057 6.12088 15.5985 6.32394H4.81727C4.81077 6.32394 4.80428 6.32394 4.79453 6.32394C3.73233 6.31427 2.87802 5.45689 2.87802 4.39968C2.87802 4.35778 2.87802 4.3191 2.88451 4.2772C2.91375 3.86141 3.09566 3.48429 3.37501 3.2071C3.6836 2.90089 4.10589 2.71395 4.57689 2.71395H18.6227C18.6649 2.71395 18.7071 2.71395 18.7493 2.71395C18.7916 2.71395 18.8338 2.71395 18.8793 2.72039C18.9053 2.72039 18.9345 2.72039 18.9605 2.72684C18.9897 2.72684 19.019 2.73006 19.0449 2.73329C19.0872 2.73651 19.1294 2.73973 19.1716 2.74618C19.2333 2.75262 19.2951 2.75907 19.3568 2.76874C19.3925 2.77519 19.425 2.77841 19.4607 2.78486C19.4965 2.7913 19.5289 2.79775 19.5647 2.8042C19.6069 2.81064 19.6459 2.82031 19.6849 2.82676C19.7791 2.8461 19.8733 2.86866 19.9642 2.89445C19.9967 2.90412 20.0292 2.91379 20.0617 2.92345C20.1266 2.94279 20.1916 2.96213 20.2566 2.9847C20.302 3.00081 20.3475 3.01693 20.3897 3.03304C20.5717 3.10073 20.7471 3.17809 20.916 3.26511C20.9517 3.28445 20.9874 3.30379 21.0232 3.32313C21.0751 3.35214 21.1271 3.38115 21.1791 3.41338C21.2311 3.44239 21.283 3.47462 21.3318 3.50686C21.3675 3.52942 21.4065 3.5552 21.4422 3.58099C21.4747 3.60355 21.5039 3.62289 21.5364 3.64868C21.5981 3.6938 21.6598 3.73893 21.7216 3.78727C21.8418 3.88075 21.9587 3.98067 22.0691 4.09026C22.0951 4.11604 22.1244 4.14183 22.1536 4.17084C22.1893 4.20629 22.225 4.24175 22.2575 4.2772C22.3128 4.33522 22.368 4.39324 22.42 4.45448C22.5694 4.62531 22.7058 4.80581 22.8292 4.99598C22.9137 5.12491 22.9884 5.25383 23.0599 5.38921C23.0826 5.43111 23.1021 5.47301 23.1216 5.51491C23.1378 5.54715 23.1508 5.57938 23.1671 5.60839C23.1963 5.67285 23.2255 5.73731 23.2515 5.80178C23.2645 5.83401 23.2775 5.86624 23.2905 5.9017C23.3067 5.94682 23.323 5.99195 23.3392 6.03385C23.375 6.12732 23.4042 6.22402 23.4302 6.32071C23.4464 6.37551 23.4594 6.4303 23.4724 6.4851C23.4984 6.59469 23.5244 6.70428 23.5439 6.81709C23.5536 6.87188 23.5634 6.9299 23.5699 6.98469C23.5796 7.04271 23.5861 7.09751 23.5926 7.15552C23.5991 7.20065 23.6023 7.249 23.6056 7.29412C23.6056 7.29735 23.6056 7.30379 23.6056 7.30702C23.6056 7.32958 23.6088 7.35214 23.6088 7.3747C23.6088 7.41016 23.6121 7.44561 23.6153 7.48107C23.6153 7.49074 23.6153 7.50041 23.6153 7.51008C23.6153 7.56487 23.6186 7.61967 23.6186 7.67768C23.6186 7.7357 23.6186 7.7905 23.6153 7.84529V7.8743C23.6153 7.90976 23.6121 7.94521 23.6088 7.98067C23.6088 8.00323 23.6088 8.02579 23.6056 8.04835C23.6056 8.0548 23.6056 8.05802 23.6056 8.06125C23.6023 8.10637 23.5991 8.15472 23.5926 8.19984C23.5861 8.25786 23.5796 8.31588 23.5699 8.37067C23.5634 8.42869 23.5536 8.48349 23.5439 8.53828C23.5244 8.65109 23.5016 8.76068 23.4724 8.87027C23.2515 9.7631 22.787 10.5592 22.1536 11.1878C21.5754 11.7615 20.8575 12.1934 20.0519 12.4319C20.0194 12.4416 19.987 12.4513 19.9545 12.4609C19.8635 12.4867 19.7693 12.5093 19.6751 12.5286C19.6361 12.5383 19.5939 12.5447 19.5549 12.5512C19.5192 12.5576 19.4867 12.5641 19.451 12.5705C19.4152 12.577 19.3828 12.5802 19.347 12.5866C19.2853 12.5963 19.2236 12.6027 19.1619 12.6092C19.1197 12.6124 19.0774 12.6189 19.0352 12.6221C19.006 12.6221 18.98 12.6285 18.9507 12.6285C18.9248 12.6285 18.8988 12.6318 18.8695 12.635C18.8273 12.635 18.7851 12.6382 18.7396 12.6414C18.6974 12.6414 18.6551 12.6414 18.6129 12.6414H5.55464C5.06089 11.7099 4.07665 11.0782 2.94623 11.0782C2.92674 11.0782 2.90725 11.0782 2.88776 11.0782H2.88127C1.8353 11.1007 0.925773 11.6616 0.422282 12.4932C0.393048 12.5415 0.363813 12.5899 0.337826 12.6414C0.259866 12.7865 0.1949 12.9412 0.142926 13.0991C0.0487249 13.3828 0 13.6857 0 13.9984C0 14.311 0.0487249 14.614 0.142926 14.8977C0.1949 15.0556 0.259866 15.2103 0.337826 15.3554C0.363813 15.4069 0.393048 15.4585 0.425531 15.5069C0.929021 16.3352 1.83855 16.8961 2.88127 16.9186H2.88776C2.90725 16.9186 2.92674 16.9186 2.94623 16.9186C4.0799 16.9186 5.06414 16.2836 5.55464 15.3554H18.6259C18.6681 15.3554 18.7104 15.3554 18.7526 15.3554C18.7948 15.3554 18.837 15.3554 18.8825 15.3618C18.9085 15.3618 18.9377 15.3618 18.9637 15.3683C18.993 15.3683 19.0222 15.3715 19.0482 15.3747C19.0904 15.3779 19.1326 15.3811 19.1749 15.3876C19.2366 15.394 19.2983 15.4005 19.36 15.4102C19.3958 15.4166 19.4282 15.4198 19.464 15.4263C19.4997 15.4327 19.5322 15.4392 19.5679 15.4456C19.6069 15.4521 19.6491 15.4617 19.6881 15.4682C19.7823 15.4875 19.8765 15.5101 19.9675 15.5359C19.9999 15.5455 20.0324 15.5552 20.0649 15.5649C21.7508 16.0645 23.0631 17.4214 23.4854 19.1265C23.5146 19.2361 23.5374 19.3457 23.5569 19.4585C23.5666 19.5133 23.5764 19.5713 23.5829 19.6261C23.5926 19.6841 23.5991 19.7389 23.6056 19.7969C23.6121 19.8421 23.6153 19.8904 23.6186 19.9355C23.6186 19.9388 23.6186 19.9452 23.6186 19.9484C23.6186 19.971 23.6218 19.9936 23.6218 20.0161C23.6218 20.0516 23.6251 20.087 23.6283 20.1225C23.6283 20.1322 23.6283 20.1418 23.6283 20.1515C23.6283 20.2063 23.6316 20.2611 23.6316 20.3191C23.6316 20.3771 23.6316 20.4319 23.6283 20.4867V20.5157C23.6283 20.5512 23.6251 20.5866 23.6218 20.6221C23.6218 20.6446 23.6218 20.6672 23.6186 20.6898C23.6186 20.693 23.6186 20.6994 23.6186 20.7027C23.6153 20.7478 23.6121 20.7961 23.6056 20.8413C23.5991 20.8993 23.5926 20.9573 23.5829 21.0121C23.5764 21.0701 23.5666 21.1249 23.5569 21.1797C23.5374 21.2925 23.5146 21.4021 23.4854 21.5117C23.4724 21.5665 23.4594 21.6213 23.4432 21.6761C23.4172 21.776 23.3847 21.8695 23.3522 21.9662C23.3197 22.0532 23.2873 22.1434 23.2515 22.2272C23.2158 22.3143 23.1768 22.3981 23.1378 22.4819C23.1118 22.5334 23.0859 22.585 23.0599 22.6366C23.0371 22.6817 23.0144 22.7236 22.9884 22.7687C22.9657 22.8074 22.9462 22.8461 22.9202 22.8815C22.9007 22.9138 22.8812 22.9428 22.8617 22.975C22.7805 23.104 22.6928 23.2264 22.5986 23.3457C22.5791 23.3715 22.5596 23.3973 22.5369 23.423C22.5206 23.4456 22.5012 23.4682 22.4817 23.4907C22.4589 23.5197 22.4329 23.5488 22.4102 23.5778C22.3355 23.6648 22.2543 23.7486 22.1731 23.8292C22.1179 23.884 22.0626 23.9355 22.0042 23.9871C21.9847 24.0064 21.9652 24.0226 21.9457 24.0387L21.9262 24.0548C21.6014 24.3384 21.2408 24.577 20.851 24.7703C20.799 24.7961 20.7503 24.8219 20.6983 24.8413C20.6756 24.8509 20.6529 24.8638 20.6301 24.8703C20.5554 24.9025 20.4775 24.9347 20.3995 24.9637C20.354 24.9799 20.3085 24.996 20.2631 25.0121C20.1981 25.0347 20.1331 25.054 20.0682 25.0733C20.0357 25.083 20.0032 25.0927 19.9707 25.1023C19.8798 25.1281 19.7856 25.1507 19.6914 25.17C19.6524 25.1797 19.6101 25.1861 19.5712 25.1926C19.5354 25.199 19.503 25.2055 19.4672 25.2119C19.4315 25.2184 19.399 25.2216 19.3633 25.228C19.3016 25.2377 19.2398 25.2442 19.1781 25.2506C19.1359 25.2538 19.0937 25.2603 19.0514 25.2635C19.0222 25.2635 18.9962 25.2699 18.967 25.2699C18.941 25.2699 18.915 25.2732 18.8858 25.2764C18.8435 25.2764 18.8013 25.2796 18.7558 25.2828C18.7136 25.2828 18.6714 25.2828 18.6292 25.2828H4.58014C3.6836 25.2828 2.94948 24.5931 2.88776 23.7196C2.88451 23.6809 2.88127 23.639 2.88127 23.5971C2.88127 23.0653 3.0989 22.585 3.44972 22.2369C3.79729 21.892 4.27155 21.6793 4.79778 21.6728C4.80428 21.6728 4.81077 21.6728 4.82052 21.6728H15.6017C15.7089 21.8759 15.8388 22.0661 15.9915 22.2369C16.0337 22.2853 16.0792 22.3336 16.1247 22.3787C16.6574 22.9073 17.3948 23.2361 18.2101 23.2361C19.0254 23.2361 19.7628 22.9073 20.2955 22.3787C20.341 22.3336 20.3865 22.2853 20.4287 22.2369C20.5814 22.0661 20.7113 21.8759 20.8185 21.6728C21.0329 21.2667 21.1564 20.8058 21.1564 20.3159C21.1564 19.9774 21.0979 19.6551 20.9939 19.3554C20.9647 19.2716 20.9322 19.191 20.8965 19.1136C20.8737 19.062 20.8478 19.0105 20.8218 18.9589C20.6821 18.6978 20.5067 18.4593 20.2988 18.253C20.2533 18.2079 20.2046 18.1628 20.1559 18.1177C20.1071 18.0757 20.0552 18.0338 20.0032 17.9952C19.9512 17.9565 19.896 17.9178 19.8408 17.8824C19.7303 17.8114 19.6166 17.747 19.4965 17.689C19.3763 17.6309 19.2528 17.5826 19.1261 17.5407C18.8403 17.4472 18.5317 17.3957 18.2134 17.3957C17.895 17.3957 17.5864 17.4472 17.3006 17.5407C17.1739 17.5826 17.0505 17.6309 16.9303 17.689C16.8101 17.747 16.6964 17.8114 16.586 17.8824C16.5307 17.9178 16.4788 17.9565 16.4235 17.9952C16.3716 18.0338 16.3196 18.0757 16.2709 18.1177C16.2221 18.1596 16.1734 18.2047 16.1279 18.253C15.92 18.4593 15.7414 18.6978 15.605 18.9589H4.79778C3.51469 18.9654 2.35504 19.4843 1.51372 20.3191C0.665907 21.1571 0.142926 22.3175 0.142926 23.6003C0.142926 24.1418 0.240376 24.6608 0.422282 25.1378C0.646417 25.7341 0.997236 26.2691 1.44226 26.7107C2.24459 27.5068 3.35227 28 4.58014 28H18.6259C22.4297 28 25.6001 25.2667 26.2465 21.6761C26.3244 21.2345 26.3667 20.7832 26.3667 20.3191C26.3667 19.855 26.3244 19.4005 26.2465 18.9621C25.8762 16.9089 24.6808 15.1362 23.0144 13.9952C24.6808 12.8542 25.8729 11.0814 26.2465 9.02821V9.03788ZM17.6352 7.10718C17.7846 6.95891 17.9892 6.86866 18.2134 6.86866C18.4375 6.86866 18.6421 6.95891 18.7916 7.10395C18.9442 7.25544 19.0384 7.4714 19.0287 7.70347C19.0222 7.9162 18.928 8.10959 18.7851 8.25142C18.6421 8.39324 18.444 8.48349 18.2329 8.48993C17.986 8.49638 17.7619 8.39324 17.6092 8.22563C17.476 8.08059 17.398 7.89042 17.398 7.68091C17.398 7.45851 17.489 7.25544 17.6352 7.10718ZM3.67061 14.382C3.53418 14.6398 3.26132 14.8171 2.94623 14.8171H2.92674C2.92674 14.8171 2.89426 14.8171 2.88127 14.8171C2.59541 14.7945 2.34854 14.6269 2.22186 14.3852C2.19912 14.3433 2.18288 14.3014 2.16663 14.2562C2.14065 14.1789 2.12765 14.0919 2.12765 14.0048C2.12765 13.9178 2.14065 13.834 2.16663 13.7534C2.17963 13.7083 2.19912 13.6664 2.22186 13.6245C2.34854 13.3828 2.59541 13.2152 2.88127 13.1926C2.89751 13.1926 2.91375 13.1926 2.92674 13.1926H2.94623C3.26132 13.1926 3.53418 13.3699 3.67061 13.6277C3.72908 13.7405 3.76481 13.8695 3.76481 14.0048C3.76481 14.1402 3.73233 14.2691 3.67061 14.382ZM17.4435 20.0516C17.4533 20.0258 17.463 20.0032 17.4727 19.9807C17.5117 19.8969 17.567 19.8227 17.6319 19.7583C17.7781 19.61 17.986 19.5197 18.2101 19.5197C18.4343 19.5197 18.6389 19.61 18.7883 19.7583C18.941 19.9098 19.0352 20.1257 19.0254 20.3578C19.0222 20.477 18.9897 20.5898 18.9377 20.693C18.9248 20.7156 18.9118 20.7381 18.8988 20.7575C18.8663 20.809 18.8241 20.8606 18.7786 20.9057C18.6324 21.0475 18.4375 21.1378 18.2264 21.141C17.9925 21.1475 17.7813 21.054 17.6287 20.9057C17.4792 20.7607 17.3883 20.5576 17.3883 20.332C17.3883 20.2321 17.4078 20.1386 17.437 20.0516H17.4435Z" fill="#E4002C"/>
<path d="M43.7581 14.006C43.4762 13.355 43.0874 12.778 42.6014 12.2913C42.1186 11.8078 41.5386 11.4178 40.8873 11.1374C40.2361 10.857 39.533 10.7119 38.8007 10.7119C38.5868 10.7119 38.3633 10.7377 38.13 10.7893C37.8934 10.8376 37.6602 10.9085 37.4398 10.9956C37.2227 11.0826 37.0154 11.1825 36.8339 11.2953C36.659 11.4049 36.5164 11.5242 36.4095 11.6499L35.9947 12.1398V7.97865C35.9947 7.78848 35.9591 7.60476 35.8943 7.43715C35.8295 7.26954 35.7387 7.12772 35.6253 7.00846C35.5119 6.89243 35.3759 6.79573 35.2171 6.73127C35.0583 6.6668 34.8866 6.63135 34.7051 6.63135C34.5237 6.63135 34.3487 6.6668 34.19 6.73127C34.0312 6.79895 33.8919 6.89565 33.7752 7.01169C33.6586 7.13094 33.5614 7.27599 33.4933 7.4436C33.4253 7.60798 33.3896 7.78848 33.3896 7.97865V16.0915C33.3896 16.8263 33.5322 17.529 33.8141 18.1736C34.096 18.8183 34.4881 19.392 34.9806 19.8723C35.4731 20.3525 36.053 20.7425 36.7043 21.023C37.3523 21.3034 38.0555 21.4452 38.7974 21.4452C39.5394 21.4452 40.2328 21.3034 40.8841 21.023C41.5354 20.7425 42.1153 20.3558 42.5981 19.8723C43.0809 19.3888 43.4697 18.8183 43.7549 18.1704C44.0368 17.5258 44.1793 16.8263 44.1793 16.0882C44.1793 15.3501 44.0368 14.6475 43.7549 13.9996L43.7581 14.006ZM41.3636 17.1745C41.2178 17.5064 41.0169 17.7998 40.7642 18.0479C40.5147 18.2994 40.2166 18.496 39.8829 18.6378C39.5492 18.7796 39.183 18.8505 38.8007 18.8505C38.4183 18.8505 38.0619 18.7764 37.725 18.6378C37.388 18.4992 37.0866 18.2994 36.8339 18.0512C36.5779 17.7998 36.3738 17.5064 36.2313 17.1745C36.0854 16.8392 36.0109 16.4782 36.0109 16.0947C36.0109 15.7111 36.0854 15.3469 36.2313 15.0149C36.3771 14.6829 36.5812 14.3896 36.8339 14.1382C37.0899 13.89 37.388 13.6934 37.725 13.5516C38.0652 13.4097 38.4281 13.3388 38.8007 13.3388C39.1733 13.3388 39.5492 13.413 39.8829 13.5516C40.2166 13.6934 40.5147 13.89 40.7642 14.1414C41.0169 14.3896 41.2146 14.6861 41.3636 15.0149C41.5094 15.3501 41.584 15.7143 41.584 16.0947C41.584 16.475 41.5094 16.8392 41.3636 17.1745Z" fill="#282828"/>
<path d="M56.0315 14.006C55.7496 13.3549 55.3608 12.778 54.8748 12.2913C54.392 11.8078 53.8153 11.4178 53.1608 11.1374C52.5095 10.857 51.8032 10.7119 51.0612 10.7119C50.3192 10.7119 49.6161 10.8537 48.968 11.1342C48.32 11.4178 47.74 11.8046 47.254 12.2913C46.768 12.778 46.3727 13.3549 46.0908 14.006C45.8089 14.6539 45.6631 15.3566 45.6631 16.0947C45.6631 16.8328 45.8057 17.5322 46.0875 18.1769C46.3694 18.8215 46.7615 19.3952 47.2508 19.8755C47.74 20.359 48.3168 20.7458 48.968 21.0262C49.6161 21.3066 50.3192 21.4484 51.0612 21.4484C51.8032 21.4484 52.5095 21.3066 53.1608 21.0262C53.8153 20.7458 54.392 20.359 54.878 19.8755C55.3608 19.3952 55.7496 18.8215 56.0348 18.1736C56.3167 17.529 56.4592 16.8296 56.4592 16.0914C56.4592 15.3533 56.3167 14.6507 56.0348 14.0028L56.0315 14.006ZM53.6338 17.1744C53.488 17.5064 53.2871 17.7997 53.0344 18.0479C52.7817 18.2993 52.4836 18.496 52.1434 18.6378C51.8032 18.7796 51.437 18.8505 51.0547 18.8505C50.6723 18.8505 50.3159 18.7764 49.979 18.6378C49.6452 18.4992 49.3471 18.2993 49.0912 18.0512C48.8352 17.7997 48.6311 17.5064 48.4853 17.1744C48.3394 16.8392 48.2649 16.4782 48.2649 16.0947C48.2649 15.7111 48.3394 15.3501 48.4853 15.0149C48.6311 14.6829 48.8352 14.3896 49.0912 14.1382C49.3471 13.89 49.6452 13.6934 49.979 13.5516C50.3159 13.4097 50.6756 13.3388 51.0547 13.3388C51.4338 13.3388 51.8032 13.413 52.1434 13.5516C52.4836 13.6934 52.7817 13.89 53.0344 14.1414C53.2839 14.3896 53.4848 14.6861 53.6338 15.0149C53.7796 15.3501 53.8542 15.7111 53.8542 16.0947C53.8542 16.4782 53.7796 16.8392 53.6338 17.1744Z" fill="#282828"/>
<path d="M66.5625 16.7616C66.4037 16.3555 66.1769 15.9912 65.8918 15.6818C65.6067 15.3756 65.26 15.1242 64.8614 14.9372C64.4694 14.7535 64.0319 14.66 63.5621 14.66H61.4625C61.3329 14.66 61.2001 14.6181 61.0672 14.5311C60.9506 14.457 60.8145 14.3023 60.8145 13.9767C60.8145 13.7737 60.8922 13.5996 61.0316 13.4739C61.1677 13.3547 61.3199 13.2966 61.4852 13.2966H65.0947C65.2535 13.2966 65.4025 13.2644 65.5516 13.1967C65.6974 13.129 65.8237 13.0356 65.9307 12.9195C66.0376 12.797 66.1283 12.652 66.1931 12.4876C66.2579 12.3232 66.2903 12.1459 66.2903 11.9526C66.2903 11.7463 66.2547 11.5658 66.1899 11.4111C66.1218 11.2563 66.0311 11.1274 65.9177 11.0243C65.8043 10.9179 65.6682 10.8373 65.5159 10.7825C65.3572 10.7277 65.1854 10.6987 65.004 10.6987H61.4301C60.9895 10.6987 60.5682 10.7825 60.1794 10.9501C59.7906 11.1177 59.4471 11.3466 59.1555 11.6302C58.8672 11.9139 58.6371 12.2555 58.4686 12.6391C58.3001 13.0227 58.2159 13.432 58.2159 13.8575C58.2159 14.2829 58.3001 14.731 58.4589 15.1403C58.6209 15.5497 58.8477 15.9171 59.1296 16.2298C59.4115 16.5424 59.7517 16.7938 60.147 16.9808C60.5358 17.1645 60.9668 17.258 61.4301 17.258H63.264C63.345 17.258 63.4358 17.258 63.5265 17.2708C63.6366 17.2805 63.7371 17.3063 63.8311 17.345C63.9412 17.3933 64.0319 17.4707 64.1 17.5738C64.168 17.677 64.2004 17.8091 64.2004 17.9671C64.2004 18.1153 64.168 18.2443 64.1032 18.3506C64.0417 18.4505 63.9639 18.5279 63.8732 18.5859C63.7857 18.6375 63.6917 18.6762 63.588 18.6955C63.4973 18.7148 63.4066 18.7213 63.3224 18.7213H59.1944C58.8412 18.7213 58.5658 18.8309 58.3487 19.0533C58.1284 19.2789 58.0215 19.5851 58.0215 19.9848C58.0215 20.1878 58.0506 20.3748 58.109 20.5424C58.1673 20.7036 58.2515 20.8422 58.3552 20.9582C58.4621 21.071 58.5853 21.1613 58.7246 21.2257C58.8607 21.287 59.0194 21.3192 59.1944 21.3192H63.669C64.1194 21.3063 64.5471 21.2064 64.9327 21.0291C65.3183 20.8518 65.652 20.6133 65.9242 20.32C66.1996 20.0267 66.4167 19.6786 66.569 19.2918C66.7213 18.905 66.799 18.4828 66.799 18.0412C66.799 17.5996 66.718 17.1677 66.5625 16.7584V16.7616Z" fill="#282828"/>
<path d="M76.8141 16.7616C76.6553 16.3555 76.4318 15.9912 76.1466 15.6818C75.8615 15.3756 75.5148 15.1242 75.1163 14.9372C74.7242 14.7535 74.2868 14.66 73.8137 14.66H71.7141C71.5845 14.66 71.4517 14.6181 71.3188 14.5311C71.2022 14.457 71.0661 14.3023 71.0661 13.9767C71.0661 13.7737 71.1406 13.5996 71.2832 13.4739C71.4193 13.3547 71.5715 13.2966 71.7368 13.2966H75.3463C75.5051 13.2966 75.6541 13.2644 75.8032 13.1967C75.9522 13.129 76.0753 13.0388 76.1823 12.9195C76.2892 12.797 76.3799 12.652 76.4447 12.4876C76.5095 12.3232 76.5419 12.1459 76.5419 11.9526C76.5419 11.7463 76.5063 11.5658 76.4415 11.4111C76.3767 11.2563 76.2827 11.1274 76.1693 11.0243C76.0559 10.9179 75.9198 10.8373 75.7643 10.7825C75.6055 10.7277 75.4338 10.6987 75.2556 10.6987H71.6817C71.241 10.6987 70.8198 10.7825 70.431 10.9501C70.0422 11.1177 69.6955 11.3466 69.4071 11.6302C69.1188 11.9171 68.8887 12.2555 68.717 12.6391C68.5517 13.0227 68.4643 13.432 68.4643 13.8575C68.4643 14.2829 68.5485 14.731 68.7073 15.1403C68.8693 15.5497 69.0961 15.9171 69.378 16.2298C69.6599 16.5424 70.0001 16.7938 70.3954 16.9808C70.7842 17.1645 71.2151 17.258 71.6785 17.258H73.5124C73.5966 17.258 73.6841 17.258 73.7748 17.2708C73.885 17.2805 73.9854 17.3063 74.0762 17.345C74.1896 17.3933 74.2803 17.4707 74.3451 17.5738C74.4131 17.677 74.4455 17.8091 74.4455 17.9671C74.4455 18.1153 74.4132 18.2443 74.3483 18.3506C74.2868 18.4505 74.209 18.5279 74.1183 18.5859C74.0308 18.6375 73.9368 18.6762 73.8332 18.6955C73.7424 18.7148 73.6517 18.7213 73.5675 18.7213H69.4395C69.0864 18.7213 68.8109 18.8309 68.5939 19.0533C68.3735 19.2789 68.2666 19.5851 68.2666 19.9848C68.2666 20.1878 68.2958 20.3748 68.3541 20.5424C68.4124 20.7036 68.4967 20.8422 68.6003 20.9582C68.704 21.071 68.8304 21.1613 68.9697 21.2257C69.1058 21.287 69.2646 21.3192 69.4395 21.3192H73.9142C74.3645 21.3063 74.7922 21.2064 75.1778 21.0291C75.5634 20.8518 75.8971 20.6133 76.1693 20.32C76.4447 20.0267 76.6618 19.6786 76.8141 19.2918C76.9664 18.905 77.0441 18.4828 77.0441 18.0412C77.0441 17.5996 76.9631 17.1677 76.8044 16.7584L76.8141 16.7616Z" fill="#282828"/>
<path d="M88.8027 13.9123C88.5175 13.2805 88.1223 12.7229 87.6298 12.2523C87.1373 11.7817 86.5573 11.4014 85.9092 11.1274C85.2645 10.8567 84.5711 10.7148 83.842 10.7148C83.113 10.7148 82.439 10.8534 81.8137 11.1274C81.1819 11.4014 80.6213 11.7785 80.1483 12.2491C79.6752 12.7197 79.2961 13.2773 79.0207 13.909C78.7453 14.5376 78.606 15.2177 78.606 15.9332V20.0621C78.606 20.2426 78.6416 20.407 78.7096 20.5553C78.7809 20.7068 78.8781 20.8422 79.0013 20.955C79.1244 21.0678 79.2702 21.158 79.4354 21.2257C79.7594 21.3546 80.1321 21.3546 80.4334 21.2257C80.5857 21.1613 80.7218 21.071 80.8384 20.9582C80.9518 20.8486 81.0425 20.7132 81.1073 20.565C81.1721 20.4167 81.2045 20.2459 81.2045 20.0654V15.8784C81.211 15.5142 81.2888 15.1758 81.4281 14.8663C81.5642 14.5601 81.7521 14.2862 81.9854 14.0573C82.2187 13.8252 82.4974 13.6415 82.8117 13.5126C83.1292 13.3837 83.4727 13.316 83.8323 13.316C84.192 13.316 84.5451 13.3869 84.8756 13.5223C85.2029 13.6576 85.501 13.8478 85.7602 14.0799C86.0194 14.3152 86.23 14.5956 86.3855 14.9115C86.5411 15.2306 86.6253 15.5754 86.635 15.9397V20.0621C86.635 20.2426 86.6707 20.4102 86.7355 20.5585C86.8035 20.71 86.9007 20.8422 87.0174 20.955C87.1405 21.0678 87.2798 21.158 87.4451 21.2225C87.7561 21.3482 88.1449 21.3546 88.4657 21.2225C88.6212 21.158 88.7573 21.0678 88.8707 20.9582C88.9841 20.8454 89.0748 20.71 89.1396 20.5617C89.2045 20.4102 89.2369 20.2426 89.2369 20.0621V15.9332C89.2369 15.2209 89.0943 14.5408 88.8059 13.9123H88.8027Z" fill="#282828"/>
<path d="M101.634 13.9509C101.342 13.3063 100.947 12.739 100.461 12.2588C99.9715 11.7817 99.3948 11.4014 98.7468 11.1274C98.0987 10.8534 97.3988 10.7148 96.6633 10.7148C95.9278 10.7148 95.2118 10.8567 94.5572 11.1339C93.8995 11.4111 93.3163 11.7978 92.827 12.2845C92.3345 12.7712 91.9392 13.3482 91.6541 13.9993C91.3689 14.6472 91.2231 15.353 91.2231 16.0976C91.2231 16.8422 91.3689 17.5319 91.6541 18.1766C91.9392 18.8212 92.3345 19.3949 92.827 19.8784C93.3195 20.3587 93.9027 20.7455 94.5605 21.0291C95.215 21.3095 95.9246 21.4513 96.6666 21.4513C97.253 21.4513 97.7682 21.403 98.1992 21.3031C98.6236 21.2064 98.98 21.0742 99.2587 20.9163C99.5211 20.7648 99.722 20.5875 99.8452 20.3877C99.9683 20.1911 100.027 19.9912 100.027 19.7721C100.027 19.598 99.9942 19.4272 99.9294 19.2628C99.8646 19.0984 99.7706 18.9534 99.6572 18.8309C99.5438 18.7084 99.4077 18.6117 99.2587 18.5376C99.0124 18.4248 98.7273 18.3957 98.3968 18.4892C98.2704 18.5247 98.1376 18.5859 98.0048 18.6729C97.833 18.7729 97.6483 18.847 97.4507 18.905C97.2466 18.9598 96.9906 18.9888 96.6666 18.9888C96.1579 18.9888 95.6816 18.8599 95.2539 18.6117C94.8294 18.3635 94.4795 18.0186 94.217 17.5899L93.9967 17.2354H100.817C101.206 17.2354 101.507 17.1258 101.747 16.9034C101.98 16.6842 102.094 16.3941 102.094 16.0235C102.078 15.2982 101.925 14.602 101.634 13.9638V13.9509ZM93.9513 15.1435L94.1101 14.8083C94.3337 14.3377 94.6707 13.9445 95.1081 13.6351C95.552 13.3224 96.0963 13.1645 96.7184 13.1645C97.3405 13.1645 97.8654 13.316 98.332 13.6125C98.7986 13.9123 99.1518 14.3152 99.3851 14.8115L99.5406 15.1435H93.9449H93.9513Z" fill="#282828"/>
<path d="M113.068 18.5377C112.997 18.3895 112.909 18.2573 112.799 18.1477C112.695 18.0414 112.572 17.9543 112.43 17.8931C112.093 17.7513 111.756 17.7867 111.493 17.9221C111.325 18.0091 111.159 18.122 111.007 18.2606C110.777 18.4733 110.508 18.628 110.207 18.7247C109.915 18.8149 109.598 18.8601 109.261 18.8601C108.875 18.8601 108.515 18.7892 108.188 18.6473C107.861 18.5055 107.573 18.3057 107.326 18.0575C107.083 17.8061 106.892 17.5128 106.753 17.184C106.617 16.8488 106.545 16.491 106.545 16.1107V12.9133H110.32C110.495 12.9133 110.667 12.881 110.826 12.8166C110.988 12.7521 111.13 12.6618 111.25 12.549C111.37 12.4362 111.464 12.3041 111.532 12.159C111.597 12.014 111.632 11.8528 111.632 11.682C111.632 11.5112 111.597 11.3403 111.529 11.1824C111.461 11.0245 111.364 10.8826 111.244 10.7602C111.121 10.6409 110.981 10.5474 110.819 10.4765C110.657 10.4088 110.495 10.3766 110.317 10.3766H106.542V8.67474C106.542 8.49746 106.503 8.32341 106.432 8.16225C106.354 7.99786 106.257 7.85927 106.131 7.74001C106.004 7.62075 105.859 7.52728 105.69 7.45959C105.522 7.3919 105.35 7.35645 105.172 7.35645C104.993 7.35645 104.828 7.3919 104.669 7.45637C104.511 7.52405 104.371 7.62075 104.255 7.73678C104.135 7.85927 104.041 8.00109 103.966 8.16547C103.895 8.32018 103.859 8.49101 103.859 8.67151V16.0946C103.859 16.8294 104.002 17.5353 104.287 18.18C104.569 18.8311 104.958 19.4048 105.444 19.8883C105.927 20.3685 106.507 20.7553 107.158 21.039C107.809 21.3226 108.515 21.4612 109.257 21.4612C109.925 21.4612 110.557 21.3516 111.137 21.1324C111.71 20.9165 112.232 20.5813 112.682 20.1461C112.835 19.9946 112.954 19.8141 113.039 19.6143C113.123 19.4145 113.165 19.2082 113.165 19.0019C113.165 18.8343 113.133 18.686 113.068 18.5442V18.5377Z" fill="#282828"/>
</g>
<defs>
<clipPath id="clip0_303_6085">
<rect width="113" height="28" fill="white"/>
</clipPath>
</defs>
</svg>
