<svg width="135" height="93" viewBox="0 0 135 93" fill="none" xmlns="http://www.w3.org/2000/svg">
<path d="M13.9414 51.9138C13.2738 54.2217 12.7582 56.5714 12.3977 58.9475L0.777344 57.1555C1.21748 54.275 1.84403 51.4264 2.653 48.6279L13.9414 51.9138Z" fill="#E4002C"/>
<path d="M132.516 81.4003L121.02 78.9343C121.524 76.5848 121.871 74.2039 122.058 71.8076L133.78 72.7538C133.547 75.6607 133.124 78.549 132.516 81.4003Z" fill="#EBEBEB"/>
<path d="M15.9087 88.4638L5.03827 92.9532C4.4095 91.4094 3.83311 89.8292 3.30912 88.2126C2.92868 87.0382 2.58215 85.8588 2.26953 84.6744L13.6252 81.6367C13.8841 82.611 14.1674 83.5813 14.4823 84.553C14.9122 85.8836 15.3898 87.1902 15.9087 88.4638Z" fill="#E4002C"/>
<path d="M11.7744 68.9439L0.029665 69.2839C-0.0573665 66.3699 0.0471541 63.4533 0.342544 60.5532L12.0387 61.7468C11.7949 64.1375 11.7066 66.5416 11.7744 68.9439Z" fill="#E4002C"/>
<path d="M17.5738 42.5866C16.506 44.7365 15.5785 46.954 14.7972 49.2251L3.6875 45.3662C4.63518 42.6115 5.75937 39.9215 7.05298 37.313L17.5738 42.5866Z" fill="#E4002C"/>
<path d="M22.7938 34.0593C21.3599 35.9815 20.0535 37.9966 18.8829 40.0915L8.64453 34.2902C10.0649 31.7497 11.6484 29.305 13.385 26.9717L22.7938 34.0593Z" fill="#E4002C"/>
<path d="M29.4504 26.6081C27.6997 28.2433 26.0558 29.9906 24.5291 31.8391L15.4922 24.2829C17.3417 22.0375 19.3357 19.9167 21.4613 17.9341L29.4504 26.6081Z" fill="#E4002C"/>
<path d="M37.3412 20.4866C35.3229 21.7762 33.3909 23.1976 31.5576 24.7416L24.0195 15.6722C26.2407 13.7991 28.5826 12.0756 31.0298 10.5132L37.3412 20.4866Z" fill="#E4002C"/>
<path d="M46.1952 15.9013C43.9809 16.8035 41.8274 17.8501 39.7484 19.0342L33.9492 8.75156C36.4724 7.31734 39.0847 6.04792 41.77 4.95117L46.1952 15.9013Z" fill="#E4002C"/>
<path d="M65.6163 11.8165C63.2279 11.8777 60.8461 12.096 58.486 12.4698L56.6719 0.792815C59.535 0.337414 62.4249 0.0725669 65.3227 0L65.6163 11.8165Z" fill="#E4002C"/>
<path d="M75.5526 12.4756C73.1914 12.0982 70.808 11.8785 68.418 11.818L68.72 0.00195312C71.6185 0.074534 74.5092 0.339529 77.373 0.79521L75.5526 12.4756Z" fill="#E4002C"/>
<path d="M89.0894 3.76084L85.2106 14.923C82.9557 14.1272 80.6514 13.4805 78.3125 12.9872L80.7227 1.41406C83.5596 2.01155 86.3545 2.7955 89.0894 3.76084Z" fill="#EBEBEB"/>
<path d="M100.083 8.79086L94.2786 19.0658C92.2006 17.8789 90.0486 16.8283 87.8359 15.9205L92.2703 4.97559C94.9548 6.07388 97.5646 7.34839 100.083 8.79086Z" fill="#EBEBEB"/>
<path d="M110.01 15.7139L102.466 24.7734C100.631 23.2322 98.6999 21.8118 96.6836 20.521L103.005 10.5527C105.448 12.12 107.787 13.844 110.01 15.7139Z" fill="#EBEBEB"/>
<path d="M118.543 24.3151L109.498 31.8678C107.972 30.0166 106.326 28.2691 104.57 26.6367L112.565 17.9727C114.694 19.9526 116.691 22.0713 118.543 24.3151Z" fill="#EBEBEB"/>
<path d="M125.392 34.3271L115.146 40.1238C113.979 38.0257 112.674 36.0085 111.238 34.0858L120.653 27.0068C122.392 29.3391 123.975 31.7846 125.392 34.3271Z" fill="#EBEBEB"/>
<path d="M130.325 45.4144L119.22 49.2651C118.441 46.9931 117.519 44.7738 116.457 42.621L126.976 37.3574C128.267 39.9664 129.386 42.6578 130.325 45.4144Z" fill="#EBEBEB"/>
<path d="M133.224 57.2111L121.605 58.9902C121.241 56.6148 120.726 54.2654 120.062 51.9564L131.351 48.6797C132.156 51.4803 132.781 54.3299 133.224 57.2111Z" fill="#EBEBEB"/>
<path d="M133.97 69.3376L122.225 68.9904C122.296 66.5881 122.209 64.1837 121.965 61.7929L121.965 61.7891L133.664 60.6064C133.957 63.5068 134.06 66.4236 133.97 69.3376Z" fill="#EBEBEB"/>
<path d="M131.725 84.7292C130.978 87.5446 130.047 90.3075 128.939 92.9997L118.074 88.5031C118.985 86.281 119.752 84.0017 120.369 81.6797L131.725 84.7292Z" fill="#EBEBEB"/>
<path d="M55.7219 12.975C53.7565 13.3917 51.8149 13.9142 49.9052 14.5403C49.5439 14.6593 49.1819 14.7821 48.8231 14.9094L44.957 3.74989C45.3918 3.59539 45.8298 3.44543 46.2665 3.30324C48.5838 2.54397 50.9403 1.91121 53.3255 1.40771L55.7219 12.975Z" fill="#E4002C"/>
<path d="M12.9476 78.8155L12.9469 78.8194L1.44936 81.254C0.850148 78.4024 0.435168 75.5147 0.207031 72.6091L11.9258 71.6855C12.1112 74.0821 12.4525 76.4639 12.9476 78.8155Z" fill="#E4002C"/>
</svg>
