<svg width="35" height="35" viewBox="0 0 35 35" fill="none" xmlns="http://www.w3.org/2000/svg">
<g clip-path="url(#clip0_303_5614)">
<path d="M27.661 21.6812C26.9444 20.9351 26.0801 20.5362 25.1642 20.5362C24.2556 20.5362 23.3839 20.9277 22.6378 21.6738L20.3035 24.0007C20.1115 23.8973 19.9194 23.8013 19.7347 23.7052C19.4688 23.5723 19.2176 23.4467 19.0034 23.3137C16.8169 21.925 14.8298 20.1152 12.9239 17.7735C12.0005 16.6063 11.38 15.6239 10.9294 14.6266C11.5352 14.0726 12.0966 13.4964 12.6432 12.9424C12.8501 12.7356 13.0569 12.5213 13.2637 12.3145C14.815 10.7632 14.815 8.75396 13.2637 7.20269L11.2471 5.18605C11.0181 4.95705 10.7817 4.72067 10.5601 4.48428C10.1169 4.02629 9.65148 3.55352 9.17133 3.1103C8.45479 2.40115 7.5979 2.02441 6.69669 2.02441C5.79548 2.02441 4.92381 2.40115 4.18511 3.1103C4.17773 3.11769 4.17773 3.11769 4.17034 3.12508L1.65876 5.65881C0.713229 6.60435 0.173979 7.75672 0.055787 9.09377C-0.121501 11.2508 0.51378 13.26 1.00132 14.5749C2.19801 17.803 3.98567 20.7948 6.65237 24.0007C9.88787 27.8641 13.7808 30.9149 18.2278 33.0646C19.9268 33.8697 22.1946 34.8227 24.7283 34.9852C24.8835 34.9926 25.046 34.9999 25.1937 34.9999C26.9001 34.9999 28.3332 34.3868 29.456 33.168C29.4634 33.1532 29.4782 33.1458 29.4855 33.131C29.8697 32.6657 30.3129 32.2446 30.7783 31.794C31.0959 31.4911 31.4209 31.1735 31.7386 30.8411C32.4699 30.0802 32.854 29.1938 32.854 28.2852C32.854 27.3692 32.4625 26.4901 31.7164 25.7514L27.661 21.6812ZM30.3055 29.4597C30.2981 29.4597 30.2981 29.4671 30.3055 29.4597C30.0174 29.77 29.7219 30.0507 29.4043 30.3609C28.9241 30.8189 28.4366 31.2991 27.9786 31.8383C27.2325 32.6361 26.3535 33.0128 25.2011 33.0128C25.0903 33.0128 24.9721 33.0128 24.8613 33.0055C22.6674 32.8651 20.6285 32.0082 19.0994 31.2769C14.9184 29.2529 11.2471 26.3793 8.19625 22.7375C5.67729 19.7015 3.99305 16.8944 2.87762 13.8805C2.19063 12.0412 1.93947 10.6081 2.05027 9.25628C2.12414 8.392 2.45656 7.67546 3.06968 7.06234L5.58864 4.54338C5.9506 4.20358 6.33473 4.0189 6.71146 4.0189C7.17684 4.0189 7.55358 4.29961 7.78996 4.53599C7.79735 4.54338 7.80474 4.55077 7.81212 4.55815C8.26273 4.97921 8.69118 5.41504 9.14178 5.88042C9.37078 6.11681 9.60716 6.35319 9.84355 6.59696L11.8602 8.61361C12.6432 9.39663 12.6432 10.1206 11.8602 10.9036C11.646 11.1178 11.4391 11.332 11.2249 11.5389C10.6044 12.1741 10.0134 12.7651 9.37078 13.3413C9.35601 13.3561 9.34123 13.3634 9.33385 13.3782C8.69856 14.0135 8.81676 14.634 8.94972 15.0551C8.95711 15.0772 8.9645 15.0994 8.97188 15.1215C9.49636 16.3921 10.2351 17.5888 11.3579 19.0145L11.3653 19.0219C13.4041 21.5335 15.5537 23.491 17.9249 24.9906C18.2278 25.1826 18.538 25.3378 18.8335 25.4855C19.0994 25.6185 19.3506 25.744 19.5648 25.877C19.5944 25.8918 19.6239 25.9139 19.6535 25.9287C19.9046 26.0543 20.141 26.1134 20.3848 26.1134C20.9979 26.1134 21.382 25.7293 21.5076 25.6037L24.034 23.0773C24.2851 22.8262 24.684 22.5233 25.1494 22.5233C25.6074 22.5233 25.9841 22.8114 26.2131 23.0626C26.2205 23.07 26.2205 23.07 26.2279 23.0773L30.2981 27.1476C31.059 27.901 31.059 28.6767 30.3055 29.4597Z" fill="#E4002C"/>
<path d="M18.9146 8.32546C20.85 8.65049 22.6081 9.56647 24.0116 10.97C25.4152 12.3735 26.3238 14.1316 26.6562 16.067C26.7374 16.5546 27.1585 16.8944 27.6386 16.8944C27.6977 16.8944 27.7494 16.887 27.8085 16.8796C28.3552 16.791 28.7171 16.2739 28.6285 15.7272C28.2296 13.3855 27.1216 11.2507 25.4299 9.55909C23.7383 7.86747 21.6035 6.75942 19.2618 6.36052C18.7152 6.27188 18.2055 6.63384 18.1094 7.17309C18.0134 7.71234 18.368 8.23681 18.9146 8.32546Z" fill="#E4002C"/>
<path d="M34.9593 15.4392C34.3019 11.5832 32.4847 8.07441 29.6924 5.28213C26.9001 2.48985 23.3913 0.672646 19.5353 0.0152035C18.996 -0.0808274 18.4863 0.288522 18.3903 0.827773C18.3017 1.37441 18.6636 1.88411 19.2103 1.98014C22.6526 2.56372 25.7921 4.19624 28.2889 6.68566C30.7857 9.18246 32.4108 12.3219 32.9944 15.7643C33.0756 16.2518 33.4967 16.5916 33.9769 16.5916C34.036 16.5916 34.0877 16.5842 34.1468 16.5768C34.686 16.4956 35.0554 15.9785 34.9593 15.4392Z" fill="#E4002C"/>
</g>
<defs>
<clipPath id="clip0_303_5614">
<rect width="35" height="35" fill="white"/>
</clipPath>
</defs>
</svg>
