<svg width="35" height="35" viewBox="0 0 35 35" fill="none" xmlns="http://www.w3.org/2000/svg">
<path d="M32.6074 1.6405H2.39258C1.07331 1.6405 0 2.71381 0 4.03308V23.8055C0 25.1248 1.07331 26.1981 2.39258 26.1981H16.5088V28.9075L5.11861 31.331C4.5647 31.4489 4.21121 31.9934 4.32906 32.5474C4.4316 33.0294 4.85721 33.3596 5.33094 33.3595C5.40162 33.3595 5.47347 33.3522 5.54538 33.3369L10.2592 32.3339L17.5145 30.7902L24.8765 32.3339L29.6626 33.3375C30.2167 33.4537 30.7604 33.0987 30.8766 32.5443C30.9928 31.9902 30.6378 31.4466 30.0835 31.3304L18.5596 28.9139V26.198H32.6074C33.9267 26.198 35 25.1247 35 23.8054V4.03308C35 2.71388 33.9267 1.6405 32.6074 1.6405ZM32.6074 24.1473H2.39258C2.20411 24.1473 2.05078 23.994 2.05078 23.8055V21.7015H32.9492V23.8055C32.9492 23.994 32.7959 24.1473 32.6074 24.1473ZM2.05078 19.6507V4.03308C2.05078 3.84461 2.20411 3.69128 2.39258 3.69128H32.6074C32.7959 3.69128 32.9492 3.84461 32.9492 4.03308V19.6507H2.05078Z" fill="#E4002C"/>
</svg>
