<svg width="16" height="17" viewBox="0 0 16 17" fill="none" xmlns="http://www.w3.org/2000/svg">
<path d="M15.3337 2.76208C14.6952 3.21292 13.9884 3.55774 13.2403 3.78327C12.8388 3.32107 12.3052 2.99348 11.7117 2.8448C11.1181 2.69611 10.4933 2.73351 9.92171 2.95194C9.3501 3.17036 8.85929 3.55927 8.51565 4.06607C8.17201 4.57287 7.99212 5.1731 8.00033 5.78559V6.45302C6.82875 6.48344 5.66784 6.2233 4.621 5.69578C3.57415 5.16826 2.67387 4.38973 2.00033 3.42952C2.00033 3.42952 -0.666341 9.43648 5.33366 12.1062C3.96068 13.0393 2.3251 13.5072 0.666992 13.4411C6.66699 16.7783 14.0003 13.4411 14.0003 5.76556C13.9997 5.57965 13.9819 5.39419 13.947 5.21159C14.6274 4.5398 15.1075 3.69163 15.3337 2.76208V2.76208Z" stroke="black" stroke-opacity="0.8" stroke-linecap="round" stroke-linejoin="round"/>
</svg>
