<svg width="29" height="29" viewBox="0 0 29 29" fill="none" xmlns="http://www.w3.org/2000/svg">
<path fill-rule="evenodd" clip-rule="evenodd" d="M14.3911 28.586H14.3852C11.9967 28.5851 9.64979 27.9852 7.56534 26.8469L0 28.8337L2.02461 21.4299C0.775732 19.2631 0.118579 16.8052 0.11965 14.287C0.12278 6.40919 6.52481 0 14.3909 0C18.2086 0.00164961 21.7918 1.48961 24.4862 4.19031C27.1806 6.89088 28.6636 10.4806 28.6621 14.2982C28.659 22.1742 22.2595 28.5828 14.3911 28.586ZM7.91599 24.2602L8.34913 24.5175C10.1703 25.5995 12.2579 26.172 14.3864 26.1729H14.3912C20.929 26.1729 26.2501 20.8454 26.2527 14.2973C26.2539 11.1241 25.0213 8.14045 22.7818 5.89572C20.5423 3.65099 17.5641 2.41419 14.3959 2.41309C7.85305 2.41309 2.53189 7.74 2.5293 14.2876C2.52838 16.5316 3.15549 18.7169 4.34286 20.6076L4.62489 21.0569L3.4266 25.4392L7.91599 24.2602ZM21.0925 17.3742C21.3412 17.4946 21.5092 17.5758 21.5809 17.6957C21.67 17.8445 21.67 18.5594 21.373 19.3934C21.0757 20.2273 19.6512 20.9885 18.966 21.0909C18.3517 21.1829 17.5743 21.2212 16.7201 20.9494C16.2022 20.7849 15.538 20.5653 14.6872 20.1974C11.3443 18.7522 9.08516 15.5084 8.65819 14.8953C8.62827 14.8523 8.60736 14.8223 8.59569 14.8067L8.59281 14.8028C8.40411 14.5508 7.13965 12.8617 7.13965 11.1135C7.13965 9.46907 7.94649 8.60711 8.31788 8.21035C8.34332 8.18317 8.36672 8.15817 8.38768 8.13525C8.71452 7.77783 9.10087 7.68848 9.33857 7.68848C9.57627 7.68848 9.81425 7.69068 10.022 7.70112C10.0476 7.70241 10.0743 7.70226 10.1019 7.70209C10.3097 7.70087 10.5687 7.69935 10.8243 8.31397C10.9226 8.55051 11.0665 8.90121 11.2183 9.27107C11.5251 10.019 11.8641 10.8452 11.9237 10.9648C12.0129 11.1435 12.0723 11.3519 11.9535 11.5903C11.9356 11.626 11.9191 11.6598 11.9033 11.692C11.8141 11.8745 11.7484 12.0087 11.5969 12.1858C11.5373 12.2555 11.4757 12.3306 11.4141 12.4056C11.2915 12.5552 11.1688 12.7048 11.062 12.8113C10.8835 12.9893 10.6976 13.1825 10.9057 13.5399C11.1137 13.8973 11.8293 15.0664 12.8894 16.0131C14.0289 17.0307 15.0193 17.4608 15.5213 17.6788C15.6193 17.7214 15.6987 17.7558 15.757 17.785C16.1135 17.9638 16.3215 17.9339 16.5295 17.6957C16.7375 17.4574 17.4209 16.6532 17.6586 16.2958C17.8963 15.9385 18.1341 15.9981 18.4609 16.1172C18.7878 16.2364 20.5409 17.1 20.8975 17.2787C20.9671 17.3136 21.0322 17.3451 21.0925 17.3742Z" fill="#FDFDFD"/>
</svg>
