<svg width="35" height="35" viewBox="0 0 35 35" fill="none" xmlns="http://www.w3.org/2000/svg">
<g clip-path="url(#clip0_303_5635)">
<path d="M17.4316 31.8896C18.6775 31.8896 19.6875 30.8797 19.6875 29.6338C19.6875 28.3879 18.6775 27.3779 17.4316 27.3779C16.1858 27.3779 15.1758 28.3879 15.1758 29.6338C15.1758 30.8797 16.1858 31.8896 17.4316 31.8896Z" fill="#E4002C"/>
<path d="M34.633 10.5864C30.1397 5.76549 24.0553 3.11042 17.4998 3.11035C10.9448 3.11042 4.86032 5.76549 0.367 10.5864C-0.147745 11.1387 -0.117325 12.0039 0.435018 12.5187C0.987429 13.0334 1.85252 13.0031 2.36733 12.4507C6.33764 8.19081 11.7118 5.84479 17.5002 5.84472C23.2882 5.84479 28.6623 8.19081 32.6327 12.4507C32.9019 12.7396 33.267 12.8857 33.6331 12.8857C33.9669 12.8857 34.3015 12.7642 34.565 12.5187C35.1173 12.0038 35.1478 11.1387 34.633 10.5864Z" fill="#E4002C"/>
<path d="M29.613 16.2327C26.2916 12.8862 21.9898 11.0433 17.5 11.0435C13.0091 11.0435 8.70728 12.8865 5.38693 16.2328C4.85509 16.7688 4.85844 17.6345 5.39445 18.1663C5.93045 18.6981 6.79609 18.6948 7.32792 18.1588C10.131 15.3338 13.7435 13.7779 17.5 13.7778C21.2555 13.7777 24.868 15.3336 27.6722 18.1589C27.9394 18.4282 28.2909 18.563 28.6426 18.563C28.9907 18.563 29.339 18.4308 29.6058 18.1662C30.1416 17.6343 30.1449 16.7686 29.613 16.2327Z" fill="#E4002C"/>
<path d="M24.1409 21.895C22.3622 20.1327 19.8126 19.0381 17.4869 19.0381C17.4866 19.0381 17.4861 19.0381 17.4858 19.0381H17.3873C17.3869 19.0381 17.3867 19.0381 17.3863 19.0381C15.0605 19.0381 12.5107 20.1328 10.7321 21.895C10.1957 22.4264 10.1917 23.292 10.7231 23.8284C10.9905 24.0983 11.3424 24.2334 11.6944 24.2334C12.0421 24.2334 12.39 24.1015 12.6565 23.8375C13.9227 22.5829 15.7792 21.7725 17.3864 21.7725C17.3866 21.7725 17.3869 21.7725 17.3871 21.7725H17.486C17.4863 21.7725 17.4864 21.7725 17.4866 21.7725C19.0937 21.7725 20.9503 22.583 22.2164 23.8375C22.7527 24.3688 23.6185 24.365 24.1498 23.8284C24.6813 23.2921 24.6773 22.4264 24.1409 21.895Z" fill="#E4002C"/>
</g>
<defs>
<clipPath id="clip0_303_5635">
<rect width="35" height="35" fill="white"/>
</clipPath>
</defs>
</svg>
