<svg width="13" height="13" viewBox="0 0 13 13" fill="none" xmlns="http://www.w3.org/2000/svg">
<path d="M0 13V9.18298C0 8.26099 0.0977444 7.39433 0.293233 6.58298C0.488722 5.75934 0.806392 5.0279 1.24624 4.38865C1.68609 3.73712 2.25627 3.20851 2.95677 2.80284C3.67356 2.38487 4.53697 2.12671 5.54699 2.02837L5.05827 2.52624V0H7.94173V2.52624L7.45301 2.02837C8.47933 2.12671 9.34273 2.38487 10.0432 2.80284C10.76 3.20851 11.3302 3.73712 11.7538 4.38865C12.1936 5.0279 12.5113 5.75934 12.7068 6.58298C12.9023 7.39433 13 8.26099 13 9.18298V13H9.77444V9.18298C9.77444 8.18723 9.69299 7.34515 9.53008 6.65674C9.38346 5.95603 9.13095 5.40898 8.77256 5.0156C8.43045 4.62222 7.97431 4.37021 7.40414 4.25957L7.62406 4.20425V10.0496H5.37594V4.20425L5.59587 4.25957C5.04198 4.37021 4.58584 4.62222 4.22744 5.0156C3.88534 5.40898 3.63283 5.95603 3.46993 6.65674C3.30702 7.34515 3.22557 8.18723 3.22557 9.18298V13H0Z" fill="#E4002C"/>
</svg>
